<svg width="40" height="40" viewBox="0 0 40 40" fill="none" xmlns="http://www.w3.org/2000/svg">
<g clip-path="url(#clip0_815_8810)">
<path fill-rule="evenodd" clip-rule="evenodd" d="M20.0035 0C8.96227 0 0.00976562 8.9525 0.00976562 19.9963C0.00976562 28.83 5.73727 36.325 13.6848 38.97C14.6848 39.1525 14.9998 38.56 14.9998 38.03C14.9998 37.555 15.0098 36.2275 14.9998 34.5588C9.43852 35.7675 8.28602 31.925 8.28602 31.925C7.37727 29.615 6.06727 29 6.06727 29C4.25227 27.76 6.20352 27.7837 6.20352 27.7837C8.20977 27.925 9.26727 29.845 9.26727 29.845C11.051 32.8988 13.946 32.0163 15.0848 31.5063C15.2673 30.2137 15.7848 29.3325 16.356 28.8325C11.916 28.3275 7.24852 26.6125 7.24852 18.95C7.24852 16.7663 8.02727 14.9825 9.30602 13.585C9.09977 13.08 8.41227 11.0462 9.50227 8.2925C9.50227 8.2925 11.181 7.755 14.9998 10.3438C16.5948 9.9 18.306 9.67875 20.006 9.67125C21.7048 9.67875 23.4148 9.9 25.0123 10.3438C28.831 7.75625 30.5073 8.2925 30.5073 8.2925C31.5973 11.0462 30.911 13.08 30.706 13.585C31.9848 14.9825 32.761 16.7663 32.761 18.95C32.761 26.6325 28.086 28.3225 23.631 28.8162C24.3485 29.435 24.9998 30.635 24.9998 32.5C24.9998 35 24.9998 37.3775 24.9998 38.035C24.9998 38.57 25.3223 39.1613 26.3373 38.9675C34.2773 36.3187 39.9998 28.8275 39.9998 19.9963C39.9998 8.9525 31.0473 0 20.0035 0Z" fill="url(#paint0_linear_815_8810)"/>
</g>
<defs>
<linearGradient id="paint0_linear_815_8810" x1="20.0048" y1="0" x2="20.0048" y2="39.0051" gradientUnits="userSpaceOnUse">
<stop stop-color="#FFAC41"/>
<stop offset="1" stop-color="#EF7C00"/>
</linearGradient>
<clipPath id="clip0_815_8810">
<rect width="40" height="40" fill="white"/>
</clipPath>
</defs>
</svg>
