<svg width="540" height="540" viewBox="0 0 540 540" fill="none" xmlns="http://www.w3.org/2000/svg">
<path d="M495.95 462.5H44.0498" stroke="#E1E7F4" stroke-width="13" stroke-miterlimit="10" stroke-linecap="round"/>
<path d="M126 293.25H343.3C345.1 293.25 346.5 291.8 346.5 290.05V87.7H122.8V290C122.8 291.8 124.2 293.25 126 293.25Z" fill="#F8FAFF" stroke="#A8B7E2" stroke-width="3" stroke-miterlimit="10"/>
<path d="M126 77.5H343.3C345.1 77.5 346.5 78.95 346.5 80.7V87.7H122.8V80.7C122.8 78.95 124.2 77.5 126 77.5Z" fill="#F8FAFF" stroke="#A8B7E2" stroke-width="3" stroke-miterlimit="10"/>
<path d="M150.6 85.15C152.036 85.15 153.2 83.9859 153.2 82.55C153.2 81.114 152.036 79.95 150.6 79.95C149.164 79.95 148 81.114 148 82.55C148 83.9859 149.164 85.15 150.6 85.15Z" fill="#9EF482"/>
<path d="M142.249 85.15C143.685 85.15 144.849 83.9859 144.849 82.55C144.849 81.114 143.685 79.95 142.249 79.95C140.813 79.95 139.649 81.114 139.649 82.55C139.649 83.9859 140.813 85.15 142.249 85.15Z" fill="#FFC95E"/>
<path d="M133.9 85.15C135.336 85.15 136.5 83.9859 136.5 82.55C136.5 81.114 135.336 79.95 133.9 79.95C132.464 79.95 131.3 81.114 131.3 82.55C131.3 83.9859 132.464 85.15 133.9 85.15Z" fill="#D44945"/>
<path d="M223.049 115.35H98.8994V198.6H223.049V115.35Z" stroke="#D44945" stroke-width="0.75" stroke-miterlimit="10"/>
<path d="M98.8994 115.35L223.049 198.6" stroke="#D44945" stroke-width="0.75" stroke-miterlimit="10"/>
<path d="M223.049 115.35L98.8994 198.6" stroke="#D44945" stroke-width="0.75" stroke-miterlimit="10"/>
<path d="M112.95 169.05H91.2998C90.0498 169.05 89.0498 168.05 89.0498 166.8C89.0498 165.55 90.0498 164.55 91.2998 164.55H112.95C114.2 164.55 115.2 165.55 115.2 166.8C115.2 168 114.2 169.05 112.95 169.05Z" fill="#687CCD"/>
<path d="M123.45 177.4H91.2998C90.0498 177.4 89.0498 176.4 89.0498 175.15C89.0498 173.9 90.0498 172.9 91.2998 172.9H123.45C124.7 172.9 125.7 173.9 125.7 175.15C125.7 176.35 124.65 177.4 123.45 177.4Z" fill="#687CCD"/>
<path d="M123.45 185.75H91.2998C90.0498 185.75 89.0498 184.75 89.0498 183.5C89.0498 182.25 90.0498 181.25 91.2998 181.25H123.45C124.7 181.25 125.7 182.25 125.7 183.5C125.7 184.75 124.65 185.75 123.45 185.75Z" fill="#687CCD"/>
<path d="M184.4 287.2H72C70.9 287.2 70 286.3 70 285.2V216.6H186.35V285.2C186.4 286.3 185.5 287.2 184.4 287.2Z" fill="#687CCD"/>
<path d="M85.5996 216.6H85.0996V287.2H85.5996V216.6Z" fill="#4541FC"/>
<path d="M184.4 206.6H72C70.9 206.6 70 207.5 70 208.6V216.6H186.35V208.6C186.4 207.5 185.5 206.6 184.4 206.6Z" fill="#4541FC"/>
<path d="M79.25 228.45H76.25C75.4 228.45 74.75 227.8 74.75 226.95C74.75 226.1 75.4 225.45 76.25 225.45H79.25C80.1 225.45 80.75 226.1 80.75 226.95C80.75 227.75 80.05 228.45 79.25 228.45Z" fill="#B3C0E2"/>
<path d="M79.25 233.45H76.25C75.4 233.45 74.75 232.8 74.75 231.95C74.75 231.1 75.4 230.45 76.25 230.45H79.25C80.1 230.45 80.75 231.1 80.75 231.95C80.75 232.75 80.05 233.45 79.25 233.45Z" fill="#B3C0E2"/>
<path d="M79.25 238.45H76.25C75.4 238.45 74.75 237.8 74.75 236.95C74.75 236.1 75.4 235.45 76.25 235.45H79.25C80.1 235.45 80.75 236.1 80.75 236.95C80.75 237.75 80.05 238.45 79.25 238.45Z" fill="#B3C0E2"/>
<path d="M79.25 243.45H76.25C75.4 243.45 74.75 242.8 74.75 241.95C74.75 241.1 75.4 240.45 76.25 240.45H79.25C80.1 240.45 80.75 241.1 80.75 241.95C80.75 242.75 80.05 243.45 79.25 243.45Z" fill="#B3C0E2"/>
<path d="M79.25 248.45H76.25C75.4 248.45 74.75 247.8 74.75 246.95C74.75 246.1 75.4 245.45 76.25 245.45H79.25C80.1 245.45 80.75 246.1 80.75 246.95C80.75 247.75 80.05 248.45 79.25 248.45Z" fill="#B3C0E2"/>
<path d="M79.25 253.45H76.25C75.4 253.45 74.75 252.8 74.75 251.95C74.75 251.1 75.4 250.45 76.25 250.45H79.25C80.1 250.45 80.75 251.1 80.75 251.95C80.75 252.75 80.05 253.45 79.25 253.45Z" fill="#B3C0E2"/>
<path d="M79.25 258.45H76.25C75.4 258.45 74.75 257.8 74.75 256.95C74.75 256.1 75.4 255.45 76.25 255.45H79.25C80.1 255.45 80.75 256.1 80.75 256.95C80.75 257.75 80.05 258.45 79.25 258.45Z" fill="#B3C0E2"/>
<path d="M79.25 263.45H76.25C75.4 263.45 74.75 262.8 74.75 261.95C74.75 261.1 75.4 260.45 76.25 260.45H79.25C80.1 260.45 80.75 261.1 80.75 261.95C80.75 262.75 80.05 263.45 79.25 263.45Z" fill="#B3C0E2"/>
<path d="M79.25 268.45H76.25C75.4 268.45 74.75 267.8 74.75 266.95C74.75 266.1 75.4 265.45 76.25 265.45H79.25C80.1 265.45 80.75 266.1 80.75 266.95C80.75 267.75 80.05 268.45 79.25 268.45Z" fill="#B3C0E2"/>
<path d="M79.25 273.45H76.25C75.4 273.45 74.75 272.8 74.75 271.95C74.75 271.1 75.4 270.45 76.25 270.45H79.25C80.1 270.45 80.75 271.1 80.75 271.95C80.75 272.75 80.05 273.45 79.25 273.45Z" fill="#B3C0E2"/>
<path d="M79.25 278.45H76.25C75.4 278.45 74.75 277.8 74.75 276.95C74.75 276.1 75.4 275.45 76.25 275.45H79.25C80.1 275.45 80.75 276.1 80.75 276.95C80.75 277.75 80.05 278.45 79.25 278.45Z" fill="#B3C0E2"/>
<path d="M102.25 228.45H94.25C93.4 228.45 92.75 227.8 92.75 226.95C92.75 226.1 93.4 225.45 94.25 225.45H102.25C103.1 225.45 103.75 226.1 103.75 226.95C103.75 227.75 103.05 228.45 102.25 228.45Z" fill="#B3C0E2"/>
<path d="M91.3 225.15L89.9 226.55C89.7 226.75 89.7 227.05 89.9 227.25L91.3 228.65C91.5 228.85 91.8 228.85 92 228.65C92.2 228.45 92.2 228.15 92 227.95L90.95 226.9L92 225.85C92.2 225.65 92.2 225.35 92 225.15C91.8 225 91.5 225 91.3 225.15Z" fill="#B3C0E2"/>
<path d="M91.3 275.15L89.9 276.55C89.7 276.75 89.7 277.05 89.9 277.25L91.3 278.65C91.5 278.85 91.8 278.85 92 278.65C92.2 278.45 92.2 278.15 92 277.95L90.95 276.9L92 275.85C92.2 275.65 92.2 275.35 92 275.15C91.8 275 91.5 275 91.3 275.15Z" fill="#B3C0E2"/>
<path d="M105.1 225.15L106.5 226.55C106.7 226.75 106.7 227.05 106.5 227.25L105.1 228.65C104.9 228.85 104.6 228.85 104.4 228.65C104.2 228.45 104.2 228.15 104.4 227.95L105.45 226.9L104.4 225.85C104.2 225.65 104.2 225.35 104.4 225.15C104.6 225 104.9 225 105.1 225.15Z" fill="#B3C0E2"/>
<path d="M108.4 275.15L109.8 276.55C110 276.75 110 277.05 109.8 277.25L108.4 278.65C108.2 278.85 107.9 278.85 107.7 278.65C107.5 278.45 107.5 278.15 107.7 277.95L108.75 276.9L107.7 275.85C107.5 275.65 107.5 275.35 107.7 275.15C107.85 275 108.2 275 108.4 275.15Z" fill="#B3C0E2"/>
<path d="M99.25 233.45H91.25C90.4 233.45 89.75 232.8 89.75 231.95C89.75 231.1 90.4 230.45 91.25 230.45H99.25C100.1 230.45 100.75 231.1 100.75 231.95C100.75 232.75 100.05 233.45 99.25 233.45Z" fill="#FFA79B"/>
<path d="M105.15 238.45H96.25C95.4 238.45 94.75 237.8 94.75 236.95C94.75 236.1 95.4 235.45 96.25 235.45H105.15C106 235.45 106.65 236.1 106.65 236.95C106.65 237.75 106 238.45 105.15 238.45Z" fill="#FFC75D"/>
<path d="M113.4 238.45H109.2C108.35 238.45 107.7 237.8 107.7 236.95C107.7 236.1 108.35 235.45 109.2 235.45H113.4C114.25 235.45 114.9 236.1 114.9 236.95C114.9 237.75 114.25 238.45 113.4 238.45Z" fill="#4541FC"/>
<path d="M133.8 238.45H117.75C116.9 238.45 116.25 237.8 116.25 236.95C116.25 236.1 116.9 235.45 117.75 235.45H133.8C134.65 235.45 135.3 236.1 135.3 236.95C135.3 237.75 134.6 238.45 133.8 238.45Z" fill="#FFA79B"/>
<path d="M160.05 238.45H138.2C137.35 238.45 136.7 237.8 136.7 236.95C136.7 236.1 137.35 235.45 138.2 235.45H160.05C160.9 235.45 161.55 236.1 161.55 236.95C161.55 237.75 160.9 238.45 160.05 238.45Z" fill="#8BBAE8"/>
<path d="M172.75 238.45H164.4C163.55 238.45 162.9 237.8 162.9 236.95C162.9 236.1 163.55 235.45 164.4 235.45H172.75C173.6 235.45 174.25 236.1 174.25 236.95C174.25 237.75 173.6 238.45 172.75 238.45Z" fill="#FFA79B"/>
<path d="M110.15 243.45H96.2002C95.3502 243.45 94.7002 242.8 94.7002 241.95C94.7002 241.1 95.3502 240.45 96.2002 240.45H110.15C111 240.45 111.65 241.1 111.65 241.95C111.65 242.75 111 243.45 110.15 243.45Z" fill="#8BBAE8"/>
<path d="M123.35 243.45H114.25C113.4 243.45 112.75 242.8 112.75 241.95C112.75 241.1 113.4 240.45 114.25 240.45H123.35C124.2 240.45 124.85 241.1 124.85 241.95C124.85 242.75 124.2 243.45 123.35 243.45Z" fill="#FFC75D"/>
<path d="M146.5 243.45H127.55C126.7 243.45 126.05 242.8 126.05 241.95C126.05 241.1 126.7 240.45 127.55 240.45H146.5C147.35 240.45 148 241.1 148 241.95C148 242.75 147.35 243.45 146.5 243.45Z" fill="#FFA79B"/>
<path d="M164.95 243.45H150.65C149.8 243.45 149.15 242.8 149.15 241.95C149.15 241.1 149.8 240.45 150.65 240.45H164.95C165.8 240.45 166.45 241.1 166.45 241.95C166.45 242.75 165.8 243.45 164.95 243.45Z" fill="#4541FC"/>
<path d="M102.25 248.45H96.25C95.4 248.45 94.75 247.8 94.75 246.95C94.75 246.1 95.4 245.45 96.25 245.45H102.25C103.1 245.45 103.75 246.1 103.75 246.95C103.75 247.75 103.05 248.45 102.25 248.45Z" fill="#B3C0E2"/>
<path d="M119.05 248.45H106.3C105.45 248.45 104.8 247.8 104.8 246.95C104.8 246.1 105.45 245.45 106.3 245.45H119.05C119.9 245.45 120.55 246.1 120.55 246.95C120.55 247.75 119.9 248.45 119.05 248.45Z" fill="#FFC75D"/>
<path d="M153.15 248.45H123.2C122.35 248.45 121.7 247.8 121.7 246.95C121.7 246.1 122.35 245.45 123.2 245.45H153.15C154 245.45 154.65 246.1 154.65 246.95C154.65 247.75 154 248.45 153.15 248.45Z" fill="#8BBAE8"/>
<path d="M99.25 253.45H91.25C90.4 253.45 89.75 252.8 89.75 251.95C89.75 251.1 90.4 250.45 91.25 250.45H99.25C100.1 250.45 100.75 251.1 100.75 251.95C100.75 252.75 100.05 253.45 99.25 253.45Z" fill="#FFA79B"/>
<path d="M99.25 258.45H91.25C90.4 258.45 89.75 257.8 89.75 256.95C89.75 256.1 90.4 255.45 91.25 255.45H99.25C100.1 255.45 100.75 256.1 100.75 256.95C100.75 257.75 100.05 258.45 99.25 258.45Z" fill="#FFA79B"/>
<path d="M108.45 263.45H96.25C95.4 263.45 94.75 262.8 94.75 261.95C94.75 261.1 95.4 260.45 96.25 260.45H108.45C109.3 260.45 109.95 261.1 109.95 261.95C109.95 262.75 109.25 263.45 108.45 263.45Z" fill="#4541FC"/>
<path d="M140.5 263.45H112.65C111.8 263.45 111.15 262.8 111.15 261.95C111.15 261.1 111.8 260.45 112.65 260.45H140.5C141.35 260.45 142 261.1 142 261.95C142 262.75 141.35 263.45 140.5 263.45Z" fill="#FFC75D"/>
<path d="M159.25 263.45H144.9C144.05 263.45 143.4 262.8 143.4 261.95C143.4 261.1 144.05 260.45 144.9 260.45H159.25C160.1 260.45 160.75 261.1 160.75 261.95C160.75 262.75 160.1 263.45 159.25 263.45Z" fill="#FFA79B"/>
<path d="M105.15 268.45H96.25C95.4 268.45 94.75 267.8 94.75 266.95C94.75 266.1 95.4 265.45 96.25 265.45H105.15C106 265.45 106.65 266.1 106.65 266.95C106.65 267.75 106 268.45 105.15 268.45Z" fill="#FFC75D"/>
<path d="M124.25 268.45H109.25C108.4 268.45 107.75 267.8 107.75 266.95C107.75 266.1 108.4 265.45 109.25 265.45H124.25C125.1 265.45 125.75 266.1 125.75 266.95C125.75 267.75 125.1 268.45 124.25 268.45Z" fill="#8BBAE8"/>
<path d="M133.8 268.45H128.6C127.75 268.45 127.1 267.8 127.1 266.95C127.1 266.1 127.75 265.45 128.6 265.45H133.8C134.65 265.45 135.3 266.1 135.3 266.95C135.3 267.75 134.6 268.45 133.8 268.45Z" fill="#FFC75D"/>
<path d="M99.25 273.45H91.25C90.4 273.45 89.75 272.8 89.75 271.95C89.75 271.1 90.4 270.45 91.25 270.45H99.25C100.1 270.45 100.75 271.1 100.75 271.95C100.75 272.75 100.05 273.45 99.25 273.45Z" fill="#FFA79B"/>
<path d="M105.3 278.45H97.2998C96.4498 278.45 95.7998 277.8 95.7998 276.95C95.7998 276.1 96.4498 275.45 97.2998 275.45H105.3C106.15 275.45 106.8 276.1 106.8 276.95C106.8 277.75 106.1 278.45 105.3 278.45Z" fill="#B3C0E2"/>
<path d="M93.05 277.95L94.5 275.45C94.65 275.2 94.95 275.15 95.2 275.25C95.45 275.4 95.5 275.7 95.4 275.95L93.95 278.45C93.8 278.7 93.5 278.75 93.25 278.65C93 278.5 92.9 278.2 93.05 277.95Z" fill="#B3C0E2"/>
<path d="M427 462.5H274.3C266.15 462.5 259.5 455.9 259.5 447.7V124.65C259.5 116.5 266.1 109.85 274.3 109.85H427C435.15 109.85 441.8 116.45 441.8 124.65V447.7C441.8 455.85 435.15 462.5 427 462.5Z" fill="#CFE5FF"/>
<path d="M441.8 124.65C441.8 116.5 435.2 109.85 427 109.85H274.3C266.15 109.85 259.5 116.45 259.5 124.65V261.45C279.45 278.45 307.15 293.4 344.85 298C384.95 302.9 417.3 299.25 441.75 293.1V124.65H441.8Z" fill="#BCD7FD"/>
<path d="M292.4 418.6H250C246.95 418.6 244.45 416.1 244.45 413.05V370.6C244.45 367.55 246.95 365.05 250 365.05H292.45C295.5 365.05 298 367.55 298 370.6V413.05C297.95 416.15 295.5 418.6 292.4 418.6Z" fill="#8BBAE8"/>
<path d="M354.15 418.6H311.7C308.65 418.6 306.15 416.1 306.15 413.05V370.6C306.15 367.55 308.65 365.05 311.7 365.05H354.15C357.2 365.05 359.7 367.55 359.7 370.6V413.05C359.7 416.15 357.2 418.6 354.15 418.6Z" fill="#8BBAE8"/>
<path d="M415.851 418.6H373.401C370.351 418.6 367.851 416.1 367.851 413.05V370.6C367.851 367.55 370.351 365.05 373.401 365.05H415.851C418.901 365.05 421.401 367.55 421.401 370.6V413.05C421.401 416.15 418.901 418.6 415.851 418.6Z" fill="#8BBAE8"/>
<path d="M418.65 456.7H265.95C257.8 456.7 251.15 450.1 251.15 441.9V118.9C251.15 110.75 257.75 104.1 265.95 104.1H418.65C426.8 104.1 433.45 110.7 433.45 118.9V441.95C433.45 450.1 426.8 456.7 418.65 456.7Z" stroke="#687CCD" stroke-width="3" stroke-miterlimit="10"/>
<path d="M379.85 229.35H313.45C310.15 229.35 307.45 226.65 307.45 223.35V156.9C307.45 153.6 310.15 150.9 313.45 150.9H379.9C383.2 150.9 385.9 153.6 385.9 156.9V223.35C385.85 226.65 383.15 229.35 379.85 229.35Z" fill="#63A7EA"/>
<path d="M423.5 186L410.85 173.4L406.75 177.5L419.4 190.1L406.75 202.75L410.85 206.8L423.5 194.2L427.55 190.1L423.5 186Z" fill="white"/>
<path d="M268.25 194.2L280.85 206.8L284.95 202.75L272.35 190.1L284.95 177.5L280.85 173.4L268.25 186L264.15 190.1L268.25 194.2Z" fill="white"/>
<path d="M425.25 124.05H411.1C410.4 124.05 409.8 123.45 409.8 122.75V122.1C409.8 121.4 410.4 120.8 411.1 120.8H425.25C425.95 120.8 426.55 121.4 426.55 122.1V122.75C426.55 123.45 425.95 124.05 425.25 124.05Z" fill="#74ABED"/>
<path d="M425.25 128.85H411.1C410.4 128.85 409.8 128.25 409.8 127.55V126.9C409.8 126.2 410.4 125.6 411.1 125.6H425.25C425.95 125.6 426.55 126.2 426.55 126.9V127.55C426.55 128.3 425.95 128.85 425.25 128.85Z" fill="#74ABED"/>
<path d="M425.25 133.7H411.1C410.4 133.7 409.8 133.1 409.8 132.4V131.75C409.8 131.05 410.4 130.45 411.1 130.45H425.25C425.95 130.45 426.55 131.05 426.55 131.75V132.4C426.55 133.1 425.95 133.7 425.25 133.7Z" fill="#74ABED"/>
<path d="M288.15 127.2L280 119.05C279.75 118.8 279.4 118.8 279.2 119.05L271.05 127.2C270.7 127.55 270.95 128.2 271.45 128.2H273.7V135.1C273.7 135.4 273.95 135.7 274.3 135.7H284.9C285.2 135.7 285.5 135.45 285.5 135.1V128.2H287.75C288.25 128.15 288.5 127.55 288.15 127.2Z" fill="#74ABED"/>
<path d="M393.701 290.55H299.601C296.301 290.55 293.601 287.85 293.601 284.55V284.35C293.601 281.05 296.301 278.35 299.601 278.35H393.651C396.951 278.35 399.651 281.05 399.651 284.35V284.55C399.701 287.85 397.001 290.55 393.701 290.55Z" fill="white"/>
<path d="M400.85 305.3H278.85C277.45 305.3 276.3 306.45 276.3 307.85C276.3 309.25 277.45 310.4 278.85 310.4H400.85C402.25 310.4 403.4 309.25 403.4 307.85C403.4 306.45 402.25 305.3 400.85 305.3Z" fill="white"/>
<path d="M400.85 318.7H278.85C277.45 318.7 276.3 319.85 276.3 321.25C276.3 322.65 277.45 323.8 278.85 323.8H400.85C402.25 323.8 403.4 322.65 403.4 321.25C403.4 319.85 402.25 318.7 400.85 318.7Z" fill="white"/>
<path d="M400.85 332.1H278.85C277.45 332.1 276.3 333.25 276.3 334.65C276.3 336.05 277.45 337.2 278.85 337.2H400.85C402.25 337.2 403.4 336.05 403.4 334.65C403.4 333.25 402.25 332.1 400.85 332.1Z" fill="white"/>
<path d="M361.55 345.45H278.8C277.4 345.45 276.25 346.6 276.25 348C276.25 349.4 277.4 350.55 278.8 350.55H361.55C362.95 350.55 364.1 349.4 364.1 348C364.15 346.6 363 345.45 361.55 345.45Z" fill="white"/>
<path d="M371.65 221.7H305.2C301.9 221.7 299.2 219 299.2 215.7V149.25C299.2 145.95 301.9 143.25 305.2 143.25H371.65C374.95 143.25 377.65 145.95 377.65 149.25V215.7C377.65 219 374.95 221.7 371.65 221.7Z" fill="#E2ECF9"/>
<path d="M299.35 200.2L298.85 211.25H287.95L291.15 199.7L299.35 200.2Z" fill="#FFC75D"/>
<path d="M298.85 211.25L297.3 247.55C297.1 252.5 293.3 256.6 288.4 257.2L255.45 261.2L254.1 258.25L246.3 241.45H279.55L287.95 211.25H298.85Z" fill="#E5A39E"/>
<path d="M291.15 199.75C291.15 199.75 289.25 194.75 290.35 189.7C291.45 184.65 295 184.15 297.85 183.2C300.7 182.2 302.75 181.35 305.35 184.7C307.95 188.05 309.4 187.75 307.3 188.4C305.2 189.05 303.5 189.15 302.4 187.8C301.3 186.45 301.15 185.85 301.15 185.85C301.15 185.85 303.6 190.9 302.15 192.6C300.65 194.3 299.2 194.45 299.2 194.45L299.35 200.3L291.15 199.75Z" fill="#FFC75D"/>
<path d="M280.7 243.6C280.9 245.35 281.1 247.15 281.3 248.9C281.35 249.3 282 249.3 281.95 248.9C281.75 247.15 281.55 245.35 281.35 243.6C281.3 243.2 280.65 243.2 280.7 243.6Z" fill="black"/>
<path d="M282.3 242.55C283.9 243.65 285.55 244.75 287.15 245.9C287.5 246.15 287.85 245.55 287.5 245.35C285.9 244.25 284.25 243.15 282.65 242C282.25 241.75 281.95 242.3 282.3 242.55Z" fill="black"/>
<path d="M243.9 217.6C243.9 217.6 254.5 214.85 250.15 204.75C245.8 194.65 236.65 193.3 230.85 197.85C225.05 202.45 229.4 208.85 229.4 208.85C229.4 208.85 224.1 205.65 221.7 209.75C219.3 213.9 222.2 216.15 222.2 216.15C222.2 216.15 214.95 213.7 213.05 218.45C210.8 223.95 217.4 225.35 217.4 225.35C217.4 225.35 214.5 229 215.95 231.75C217.4 234.5 219.35 235.4 219.35 235.4C219.35 235.4 211.65 236.8 211.65 243.2C211.65 249.6 222.25 247.8 222.25 247.8H236.25L237.2 223.95L243.9 217.6Z" fill="black"/>
<path d="M231.85 230.9L230.9 242.8L243 248.4L243.4 231.8L248.65 229.9C251.15 229 252.2 226 250.8 223.75L241.5 208.9C241.5 208.9 238.6 222.2 234.25 223.1C229.9 224 229.45 220.8 229.45 220.8C229.45 220.8 221.75 224.45 224.65 228.6C227.5 232.75 231.85 230.9 231.85 230.9Z" fill="#FFC75D"/>
<path d="M243.9 217.65C244.35 218.85 245.25 219.7 246.4 220.15C246.3 220.05 246.25 219.95 246.15 219.85C246.1 220.4 245.9 220.85 245.55 221.25C245.3 221.6 245.85 221.9 246.1 221.6C246.5 221.05 246.7 220.5 246.75 219.85C246.75 219.7 246.65 219.6 246.5 219.55C245.55 219.2 244.8 218.45 244.45 217.5C244.4 217.1 243.75 217.3 243.9 217.65Z" fill="black"/>
<path d="M246 225.85C244.55 226.75 242.65 226.45 241.5 225.15C241.25 224.85 240.75 225.3 241.05 225.6C242.35 227.15 244.6 227.45 246.3 226.4C246.65 226.2 246.35 225.65 246 225.85Z" fill="black"/>
<path d="M242.9 231.05C241.85 231.35 240.75 231.7 239.7 232C239.3 232.1 239.45 232.75 239.85 232.65C240.9 232.35 242 232 243.05 231.7C243.5 231.6 243.3 230.95 242.9 231.05Z" fill="black"/>
<path d="M226.9 227.1C226.9 225.5 228.55 224.25 230.1 224.7C231.4 225.05 232.2 226.3 232.4 227.6C232.6 227.5 232.75 227.4 232.95 227.3C231.35 225.65 228.75 226.3 228.1 228.5C228 228.9 228.6 229.1 228.75 228.65C229.25 226.9 231.2 226.45 232.5 227.7C232.75 227.95 233.1 227.7 233.05 227.4C232.75 225.65 231.4 223.95 229.5 223.9C227.75 223.85 226.25 225.3 226.2 227.05C226.25 227.55 226.9 227.55 226.9 227.1Z" fill="black"/>
<path d="M213.05 323.1L274.75 322.2L265.1 277.25L265.85 276.45C271.85 270.25 271.8 260.4 265.75 254.3L257.7 246.15C254.75 243.15 250.7 241.5 246.5 241.5H231.75C224.8 241.5 219.15 247 218.95 253.95L213.05 323.1Z" fill="#FFA79B"/>
<path d="M215.8 290.6L215.25 297.2L234.65 301.25L219.35 289.4L215.8 290.6Z" fill="black"/>
<path d="M262.699 276.45C259.499 273.85 254.599 274.45 250.749 274.75C246.699 275.05 242.699 276.05 239.749 278.95C239.449 279.25 239.899 279.7 240.199 279.4C243.049 276.6 246.899 275.7 250.749 275.4C254.399 275.1 259.199 274.5 262.249 276.9C262.549 277.15 262.999 276.7 262.699 276.45Z" fill="black"/>
<path d="M228.85 445.85L226.55 454.3C222.2 454.3 221.25 456.25 219.3 454.3C218.7 453.7 217.1 453.15 215.1 452.65L215.5 445.85H228.85Z" fill="#FFC75D"/>
<path d="M291.85 445.85L291.6 453.35C287.25 452.4 289.2 457.7 286.3 455.25C285.85 454.85 284.1 454.6 281.55 454.35L280.1 445.8H291.85V445.85Z" fill="#FFC75D"/>
<path d="M293.4 399.1L291.9 445.85H280.15L274.4 412.15C274.05 410 273.9 407.8 273.95 405.6L274.3 395.15L251.15 354.8L242.45 395.6L228.85 445.9H215.5L217.5 413.75C217.75 410.3 218.4 406.9 219.45 403.6L222.65 393.8C222.65 393.8 215.9 358.9 215.4 347.35C214.9 335.8 216.85 323.2 216.85 323.2L274.7 322.3L292.25 389.55C293.15 392.6 293.5 395.85 293.4 399.1Z" fill="black"/>
<path d="M240.55 462.5H214.5L215.1 452.65C217.1 453.15 218.7 453.7 219.3 454.3C221.25 456.25 222.2 454.3 226.55 454.3L241.1 459.55C242.7 460.15 242.25 462.5 240.55 462.5Z" fill="#687CCD"/>
<path d="M307.15 462.5H282.95L281.55 454.4C284.15 454.6 285.85 454.9 286.3 455.3C289.2 457.7 287.25 452.45 291.6 453.4L307.7 459.65C309.25 460.15 308.85 462.5 307.15 462.5Z" fill="#687CCD"/>
<path d="M224.4 325.6C223.5 341.25 223.6 356.95 224.85 372.55C225.5 380.45 226.65 388.25 227.5 396.1C228.35 403.75 225.9 411.5 224.6 419C223.1 427.35 221.8 435.75 220.7 444.2C220.65 444.6 221.3 444.6 221.35 444.2C222.4 436.25 223.6 428.35 225 420.45C225.65 416.7 226.35 412.95 227.1 409.2C227.75 405.85 228.5 402.55 228.4 399.1C228.3 395.25 227.5 391.4 227.05 387.55C226.55 383.55 226.15 379.55 225.75 375.55C225.05 367.8 224.65 360.05 224.5 352.3C224.35 343.4 224.5 334.5 225.05 325.6C225.1 325.15 224.45 325.15 224.4 325.6Z" fill="white"/>
<path d="M230.95 325.2C232.1 331.55 230.35 338.05 226.1 342.95C225.85 343.25 226.3 343.75 226.55 343.4C230.95 338.3 232.75 331.6 231.55 325C231.5 324.6 230.9 324.8 230.95 325.2Z" fill="white"/>
<path d="M252.35 353.6C252.7 351.2 253.55 349 254.95 347C255.2 346.65 254.6 346.3 254.4 346.65C253 348.7 252.1 350.95 251.75 353.4C251.65 353.85 252.3 354 252.35 353.6Z" fill="white"/>
<path d="M254.35 350.75C258.1 358.35 262 365.9 265.95 373.4C267.8 376.9 269.7 380.4 271.6 383.85C273.65 387.55 276.4 391.35 277.75 395.35C279.1 399.35 278.85 404 279.25 408.15C279.6 412.1 280.05 416.1 280.5 420.05C281.5 428.3 282.75 436.5 284.2 444.65C284.3 445.05 284.9 444.9 284.85 444.5C283.3 435.85 282 427.15 280.95 418.4C280.45 414.15 280.05 409.9 279.65 405.65C279.35 402 279.45 398 278.1 394.5C276.7 390.95 274.4 387.65 272.6 384.3C270.55 380.6 268.5 376.85 266.55 373.1C262.55 365.6 258.7 358.05 254.95 350.45C254.75 350.05 254.2 350.4 254.35 350.75Z" fill="white"/>
<path d="M250.65 299.55L246.8 306.1L234.65 301.25L239.85 291.2L250.65 299.55Z" fill="#FFC75D"/>
<path d="M225.1 279.75L239.85 291.2L234.65 301.3L213.5 292.8C207.8 290.55 204.9 284.2 206.85 278.4L215.35 253.2C217.7 246.2 224.35 241.55 231.7 241.65L245.35 241.9L225.1 279.75Z" fill="#FFA79B"/>
<path d="M265.35 355.85L235.35 325.85C233.2 323.7 233.2 320.15 235.35 318L265.35 288C267.5 285.85 271.05 285.85 273.2 288L303.2 318C305.35 320.15 305.35 323.7 303.2 325.85L273.2 355.85C271.05 358.05 267.5 358.05 265.35 355.85Z" fill="#8BBAE8"/>
<path d="M256.35 304.65L254.65 298.95C254.25 297.55 252.75 296.8 251.35 297.3C249.95 297.8 248.85 298.85 248.25 300.25L245.2 306.4C244.75 307.45 244.85 308.65 245.4 309.6L248.05 313.8C247.65 314.55 247.3 315.4 247.3 315.95C247.3 317.05 249.15 318.6 249.5 317.5C249.8 316.4 251.4 314.65 251.4 314.65L252.75 312.6C253.65 311.8 254.1 310.6 254.05 309.4L253.95 307.65C255.65 307.75 256.85 306.2 256.35 304.65Z" fill="#FFC75D"/>
<path d="M252.2 301.15C252.95 303.2 253.65 305.25 254.2 307.35C254.3 307.75 254.95 307.6 254.85 307.2C254.25 305.1 253.6 303.05 252.85 301C252.65 300.55 252.05 300.75 252.2 301.15Z" fill="black"/>
<path d="M249.25 298.7C247.85 300.55 246.7 302.45 245.7 304.55C245.5 304.95 246.1 305.25 246.25 304.9C247.25 302.85 248.45 300.9 249.8 299.05C250.05 298.7 249.5 298.35 249.25 298.7Z" fill="black"/>
<path d="M250.65 304.55C251.5 306.95 252.2 309.35 252.75 311.8C252.85 312.2 253.5 312.05 253.4 311.65C252.8 309.2 252.1 306.8 251.3 304.4C251.15 304 250.5 304.15 250.65 304.55Z" fill="black"/>
<path d="M248.6 308.7C249.65 310.45 250.55 312.25 251.25 314.15C251.4 314.55 252.05 314.35 251.9 314C251.2 312.05 250.3 310.15 249.2 308.4C248.95 308 248.35 308.35 248.6 308.7Z" fill="black"/>
<path d="M236.15 259.6C234.2 262.55 232.35 265.55 230.65 268.65C229.1 271.45 227 274.65 226.15 277.8C225.5 280.1 228.75 281.95 230.2 283.35C233 286.05 235.75 288.7 238.55 291.4C238.85 291.7 239.3 291.25 239 290.95C236.75 288.75 234.45 286.6 232.2 284.4C231.05 283.3 229.95 282.2 228.8 281.15C228.35 280.75 227.55 280.2 227.25 279.65C226.5 278.15 227.3 276.8 227.9 275.6C230.45 270.2 233.4 265 236.7 260C236.95 259.55 236.4 259.25 236.15 259.6Z" fill="black"/>
<path d="M229.4 244.75C232.85 246.7 234.95 250.25 235.05 254.2C235.05 254.6 235.7 254.6 235.7 254.2C235.6 250 233.4 246.25 229.75 244.2C229.35 244 229 244.55 229.4 244.75Z" fill="black"/>
<path d="M223.7 278.45C222.1 278.45 220.5 278.45 218.9 278.45C218.5 278.45 218.5 279.1 218.9 279.1C220.5 279.1 222.1 279.1 223.7 279.1C224.15 279.1 224.15 278.45 223.7 278.45Z" fill="black"/>
<path d="M224.5 280.4C223.5 281 222.8 281.9 222.45 283.05C222.3 283.45 222.95 283.65 223.1 283.2C223.4 282.25 224 281.5 224.85 280.95C225.2 280.75 224.85 280.2 224.5 280.4Z" fill="black"/>
<path d="M146.85 440.7L140.65 453.8C135.85 452.85 134.85 455.7 132.95 453.3C132.15 452.3 129.7 452.2 127.15 452.45L131.1 440.7H146.85Z" fill="#FFA79B"/>
<path d="M161.05 410.75L150.4 440.7L130.75 440.8L150.1 384.4L161.05 410.75Z" fill="#687CCD"/>
<path d="M156 424.95L161.05 410.75L150.1 384.4L144.55 400.5L156 424.95Z" fill="black"/>
<path d="M153.85 462.5H123.75L127.15 452.5C129.7 452.25 132.15 452.3 132.95 453.35C134.9 455.75 135.85 452.85 140.65 453.85L154.5 459.5C156.05 460.1 155.6 462.5 153.85 462.5Z" fill="#4541FC"/>
<path d="M153.1 404.25C148.95 415.75 144.85 427.25 140.7 438.75C140.55 439.15 141.2 439.3 141.35 438.9C145.5 427.4 149.6 415.9 153.75 404.4C153.9 404.05 153.25 403.85 153.1 404.25Z" fill="black"/>
<path d="M133.9 435.8C139.75 435.95 145.6 436.15 151.45 436.3C151.85 436.3 151.85 435.65 151.45 435.65C145.6 435.5 139.75 435.3 133.9 435.15C133.45 435.1 133.45 435.75 133.9 435.8Z" fill="black"/>
<path d="M195.55 337.25H151.4V339.2H195.55V337.25Z" fill="black"/>
<path d="M194.994 339.009L207.315 302.955L205.991 302.502L193.669 338.556L194.994 339.009Z" fill="black"/>
<path d="M103.2 292.45L123.15 272.3L141.15 281.5L133.9 295.05C132.25 298.2 128.3 299.3 125.25 297.5L119.95 294.35L114.15 302.05L103.2 292.45Z" fill="#FFA79B"/>
<path d="M128.25 280.25C128.25 280.25 141.1 289.9 145.6 284.1C150.1 278.3 132.1 264.15 123.75 266.75C115.4 269.35 111.55 283.45 111.55 283.45L119.9 286C119.9 286 117.95 277 122.45 277C126.95 277 125.65 282.8 125.65 282.8L128.25 280.25Z" fill="black"/>
<path d="M135.951 287.95C135.951 289.05 135.901 290.15 135.901 291.25C136.001 291.15 136.051 291.05 136.151 290.95C135.251 291.15 134.351 291 133.551 290.55C133.201 290.35 132.851 290.9 133.201 291.1C134.151 291.65 135.201 291.8 136.301 291.55C136.451 291.5 136.551 291.35 136.551 291.25C136.551 290.15 136.601 289.05 136.601 287.95C136.601 287.55 135.951 287.55 135.951 287.95Z" fill="black"/>
<path d="M129.6 292.65C128.3 291.7 127.25 290.5 126.5 289.1C126.4 288.9 126.1 288.9 126 289.05C124.5 290.7 124.55 293.25 126.1 294.85C126.4 295.15 126.85 294.7 126.55 294.4C125.25 293.05 125.2 290.9 126.45 289.55C126.3 289.55 126.1 289.5 125.95 289.5C126.75 291 127.9 292.3 129.3 293.3C129.6 293.45 129.95 292.9 129.6 292.65Z" fill="black"/>
<path d="M121.4 279.8C121.55 278.7 123.05 278.9 123.7 279.5C124.85 280.6 123.7 282.7 123.1 283.8C123.3 283.9 123.5 283.95 123.7 284.05C124.1 282.45 123.05 280.75 121.45 280.5C121.05 280.45 120.85 281.05 121.3 281.15C122.6 281.35 123.45 282.65 123.1 283.9C123 284.25 123.5 284.5 123.7 284.15C124.5 282.7 125.75 280 123.85 278.8C122.85 278.15 121.05 278.25 120.8 279.65C120.7 280.05 121.35 280.25 121.4 279.8Z" fill="black"/>
<path d="M161.9 435.7C168.65 435.55 175.4 435.85 182.1 436.55C182.5 436.6 182.5 435.95 182.1 435.9C175.4 435.2 168.65 434.95 161.9 435.05C161.5 435.05 161.5 435.7 161.9 435.7Z" fill="black"/>
<path d="M186.75 450.9C181.75 450.9 181.15 454.75 178.25 453.3C177.55 452.95 175.3 452.85 172.2 452.9L167.55 440.7H184.55L186.75 450.9Z" fill="#FFA79B"/>
<path d="M184.5 440.7L162.3 440.75L148.15 390.1H86.9498C76.8498 390.1 68.3998 382.4 67.4498 372.35L66.5498 362.45H148.2C159.45 362.45 169.15 370.3 171.45 381.3L184.35 440L184.5 440.7Z" fill="#687CCD"/>
<path d="M203.349 462.5H175.799L172.149 452.95C175.249 452.9 177.499 453 178.199 453.35C181.099 454.8 181.749 450.95 186.699 450.95L203.999 459.55C205.549 460.25 204.999 462.5 203.349 462.5Z" fill="#4541FC"/>
<path d="M86.6997 363.8C88.8997 370.4 96.0997 372.1 102.25 372.55C111.5 373.25 120.75 373.9 129.95 375C134.75 375.6 139.55 376.25 144.35 377C146.5 377.35 148.6 377.7 150.7 378.05C151.65 378.2 152.7 378.3 153.6 378.6C155.4 379.15 156 380.65 156.5 382.3C159.2 391.15 161.8 400 164.5 408.85C167.55 418.95 170.55 429.05 173.6 439.15C173.7 439.55 174.35 439.4 174.25 439C168.9 421.15 163.5 403.35 158.15 385.5C157.35 382.9 157.05 379.15 154.1 378.15C152.3 377.55 150.25 377.4 148.35 377.1C145.95 376.7 143.55 376.35 141.1 375.95C132.25 374.65 123.4 373.65 114.5 372.9C109.35 372.45 104.1 372.45 98.9997 371.7C94.0997 371 88.9497 368.85 87.2497 363.75C87.1997 363.2 86.5997 363.4 86.6997 363.8Z" fill="black"/>
<path d="M149 383.9C149 385.65 149 387.45 149 389.2C149 389.6 149.65 389.6 149.65 389.2C149.65 387.45 149.65 385.65 149.65 383.9C149.65 383.5 149 383.5 149 383.9Z" fill="black"/>
<path d="M151.55 389.3C151.85 388.5 152.2 387.7 152.5 386.9C152.65 386.5 152 386.35 151.85 386.75C151.55 387.55 151.2 388.35 150.9 389.15C150.75 389.5 151.4 389.7 151.55 389.3Z" fill="black"/>
<path d="M66.5498 362.55L67.2498 369.95L101.45 362.55H66.5498Z" fill="black"/>
<path d="M75.1 314.3L66.5 362.55H126.95L121.2 306.4C120.75 302.1 118.2 298.35 114.4 296.35L109.1 293.55C100.65 289.1 90.25 290.8 83.6 297.65C79.2 302.2 76.25 308 75.1 314.3Z" fill="#FFC75D"/>
<path d="M104 333.3C104 333.3 106.1 344.65 118.65 346.9C121.25 347.05 123.55 347.15 125.4 347.2L121.25 306.4C121 304.05 120.1 301.85 118.75 300C112.9 296.9 103.65 295 97.4005 308.45C97.4005 308.45 96.1505 323.5 98.5005 334.55L104 333.3Z" fill="black"/>
<path d="M98.2999 324.3C96.5499 337.05 94.4499 349.75 91.9499 362.4C91.8499 362.8 92.4999 363 92.5999 362.55C95.0999 349.9 97.1999 337.2 98.9499 324.45C98.9999 324.1 98.3499 323.9 98.2999 324.3Z" fill="black"/>
<path d="M97.3998 308.4L99.9998 331L127.65 325.85L122 305.05C121.05 301.55 118.7 298.6 115.5 296.9L114.8 296.55C106.3 292.05 96.2998 298.9 97.3998 308.4Z" fill="#FFC75D"/>
<path d="M180.3 335.95C180.3 335.95 177.75 332.5 176.45 330.6C173.9 326.8 172.15 328.05 169.4 329.55C166.6 331.05 159.75 330.4 159.75 330.4L127.6 325.9L106.4 329.45C107.45 338.15 115.35 344.35 124.1 343.35L159.75 337.5C159.75 337.5 164.9 338.15 167.45 337.95C170 337.75 170.65 336 172.4 334.5C174.1 333 173.9 330.65 174.1 332.55C174.3 334.5 176.05 336 177.1 336.2C178.2 336.4 179.9 337.05 180.3 335.95Z" fill="#FFA79B"/>
<path d="M110.8 295.3C104.5 293.85 96.9 298.55 96.4 305.3C96.35 305.7 97.05 305.7 97.05 305.3C97.5 299 104.8 294.6 110.6 295.95C111.05 296.05 111.25 295.4 110.8 295.3Z" fill="black"/>
<path d="M102 328.2C109.65 326.25 117.4 324.85 125.25 324.05C125.65 324 125.65 323.35 125.25 323.4C117.35 324.25 109.5 325.65 101.8 327.6C101.4 327.65 101.6 328.3 102 328.2Z" fill="black"/>
<path d="M62.0508 462.5H102.701C117.351 462.5 127.951 448.45 123.901 434.35L112.151 393.4C111.601 391.5 109.851 390.15 107.851 390.15H90.8008C88.9508 390.15 87.3008 389 86.6508 387.3L75.6508 358.95C74.0008 354.7 77.1508 350.1 81.7008 350.1H114.651" stroke="black" stroke-width="7" stroke-miterlimit="10" stroke-linecap="round"/>
<path d="M131.45 390.15H87.7004C73.0004 390.15 60.6004 377.9 58.9004 361.6L52.4004 299.5" stroke="#D44945" stroke-width="15" stroke-miterlimit="10" stroke-linecap="round"/>
<path d="M148.8 462.5H184.25C200.85 462.5 212.85 442.25 208.25 421.95L190.05 345.8C189.45 343.05 187.45 341.15 185.2 341.15" stroke="black" stroke-width="7" stroke-miterlimit="10" stroke-linecap="round"/>
<path d="M144.7 342.8H205.45" stroke="#D44945" stroke-width="15" stroke-miterlimit="10" stroke-linecap="round"/>
<path d="M380.901 252.6C380.901 252.6 380.751 249.05 379.601 246.8C377.451 242.5 374.901 242.1 374.901 242.1C373.201 242.1 366.951 240.4 366.951 240.4C366.951 240.4 366.751 242.95 369.101 244.45C371.451 245.95 373.151 244.65 373.151 244.65C373.151 244.65 371.85 246.8 372.3 249.6C372.75 252.4 374.451 252.15 374.451 252.15L374.651 259H378.3L421.351 281.5L424.55 264.15L380.901 252.6Z" fill="#E89087"/>
<path d="M435.2 250.05H442.25C455.25 250.05 465.5 261.15 464.45 274.1L462.7 338.1H409.8L426.35 257.25C427.2 253.05 430.9 250.05 435.2 250.05Z" fill="#D44945"/>
<path d="M428.2 253.35C427.3 254.45 426.65 255.75 426.35 257.2L418.35 296.3L437.05 270.25C443.35 263.2 437.4 252.25 428.2 253.35Z" fill="black"/>
<path d="M429.9 281.55C430.3 300 429.5 318.5 427.5 336.85C427.45 337.25 428.1 337.25 428.15 336.85C430.15 318.5 430.95 300.05 430.55 281.55C430.55 281.1 429.9 281.1 429.9 281.55Z" fill="black"/>
<path d="M428.45 223.65L425.8 236.45C425.2 239.45 427.5 242.3 430.55 242.3H432.95L432.3 251.3L445.8 252.6L442.6 221.1L428.45 223.65Z" fill="#FFA79B"/>
<path d="M424.6 214.05C431.05 208.25 436.8 216 436.8 216C436.8 216 444.9 214.9 448.35 219.2C456.7 229.5 442.55 241.7 442.55 241.7L436.75 237.2C436.75 237.2 443.2 235.25 441.25 229.5C439.3 223.7 434.8 230.8 434.8 230.8C434.8 230.8 432.25 222.45 428.35 223.75C424.45 225.05 417.95 220 424.6 214.05Z" fill="black"/>
<path d="M427.95 228.8C428 230.15 427.15 231.4 425.85 231.85C425.45 232 425.6 232.6 426 232.5C427.55 231.95 428.65 230.5 428.6 228.85C428.6 228.4 427.95 228.4 427.95 228.8Z" fill="black"/>
<path d="M427.2 236.85C428.55 237 429.85 236.75 431.1 236.2C430.95 236.15 430.8 236.05 430.6 236C430.95 237.05 430.55 238.2 429.6 238.8C429.25 239 429.55 239.6 429.95 239.35C431.15 238.6 431.7 237.15 431.25 235.8C431.2 235.6 430.95 235.5 430.75 235.6C429.6 236.1 428.4 236.25 427.2 236.15C426.75 236.15 426.75 236.8 427.2 236.85Z" fill="black"/>
<path d="M439.55 268.2L409.85 297.55L398.2 281L426.8 252.65C428.5 250.95 430.8 250 433.2 250C442.8 250.05 447.05 262.2 439.55 268.2Z" fill="#D44945"/>
<path d="M432.95 253.2C437.75 255.4 440.2 261 438.5 266C438.35 266.4 439 266.55 439.15 266.15C440.9 260.85 438.35 254.9 433.3 252.6C432.9 252.45 432.55 253.05 432.95 253.2Z" fill="black"/>
<path d="M402.6 279C404.55 284 407.499 288.5 411.299 292.25C411.599 292.55 412.05 292.1 411.75 291.8C408 288.1 405.1 283.75 403.2 278.8C403.1 278.4 402.45 278.6 402.6 279Z" fill="black"/>
<path d="M398.2 281L395.05 284.1L364.85 273.15C364.85 273.15 365.3 268.2 362.3 266.95C359.3 265.65 355.65 264.4 354.15 262.9C352.65 261.4 352.65 266.1 354.35 266.55C356.05 267 357.55 267.85 357.55 267.85C357.55 267.85 353.25 269.55 351.1 268.7C348.95 267.85 346.4 265.7 344.65 265.7C342.9 265.7 339.95 266.35 340.8 266.75C341.65 267.2 344.25 268.05 345.1 269.1C345.5 269.6 346.25 269.9 347 270.1C347.2 270.15 347.15 270.45 346.95 270.45C345.75 270.45 344.05 270.45 342.95 270.2C341 269.75 339.5 269.75 338.9 270.65C338.25 271.5 341.25 272.15 341.25 272.15C341.25 272.15 341.9 273.65 342.75 274.5C343.6 275.35 347.7 276.2 349.2 277.05C350.7 277.9 358.85 279 358.85 279L392.65 296.5C396.75 298.65 401.7 298.25 405.45 295.5L407.35 294.1L398.2 281Z" fill="#FFA79B"/>
<path d="M347.35 270.7C347.9 270.8 348.5 270.85 349.05 270.95C349.45 271 349.65 270.35 349.2 270.3C348.65 270.2 348.05 270.15 347.5 270.05C347.15 270.05 346.95 270.65 347.35 270.7Z" fill="black"/>
<path d="M342.15 272.8C343.95 273.65 345.85 274.15 347.85 274.2C348.25 274.2 348.25 273.55 347.85 273.55C345.95 273.5 344.15 273.05 342.45 272.25C342.1 272.05 341.8 272.6 342.15 272.8Z" fill="black"/>
<path d="M377.7 454.45C384.15 455.25 380.75 457.65 386.05 456.7C391.35 455.75 391.35 455.75 391.35 455.75L391.75 455.7L390.55 462.5H362.35C361.1 462.5 360.8 460.75 361.95 460.35L377.7 454.45Z" fill="black"/>
<path d="M480.55 462.5H453.4C452.2 462.5 451.85 460.8 452.95 460.35L466.4 454.8C472.2 453.85 472.5 458.35 474.75 456.4C475.65 455.6 476.65 454.7 477.45 453.95L480.55 462.5Z" fill="black"/>
<path d="M467.551 426.15H450.201L439.001 406.35C436.301 401.6 434.501 396.4 433.701 391L429.851 365L402.751 392.7L396.901 426.15H379.601L381.651 395.35C382.001 390.25 383.451 385.25 385.951 380.75L409.801 338.05H459.301C459.301 338.05 460.551 347.7 460.251 353.95C459.951 360.25 456.701 395.9 456.701 395.9L467.551 426.15Z" fill="#4541FC"/>
<path d="M394.55 439.65L391.75 455.7L391.35 455.75C391.35 455.75 391.35 455.75 386.05 456.7C380.75 457.65 384.1 455.25 377.7 454.45L378.7 439.65H394.55Z" fill="#FFC75D"/>
<path d="M477.451 453.9C476.601 454.7 475.651 455.55 474.751 456.35C472.501 458.3 472.201 453.8 466.401 454.75L457.851 439.65H472.401L477.451 453.9Z" fill="#FFC75D"/>
<path d="M396.9 426.15L394.55 439.65H378.65L379.6 426.15H396.9Z" fill="#FFA79B"/>
<path d="M472.4 439.65H457.85L450.2 426.15H467.55L472.4 439.65Z" fill="#FFA79B"/>
<path d="M424.951 339.5C415.551 353 406.151 366.5 396.751 380C394.801 382.8 392.601 385.6 391.301 388.8C390.101 391.8 389.951 395.05 389.801 398.25C389.401 406.5 389.001 414.7 388.551 422.95C388.551 423.35 389.201 423.35 389.201 422.95C389.601 415.15 390.001 407.35 390.351 399.55C390.551 395.5 390.601 391.45 392.451 387.75C394.001 384.6 396.301 381.75 398.301 378.9C407.351 365.9 416.401 352.85 425.501 339.85C425.801 339.5 425.201 339.15 424.951 339.5Z" fill="black"/>
<path d="M420.35 339.15C419.15 341.45 418.55 343.9 418.5 346.45C418.5 346.85 419.15 346.85 419.15 346.45C419.2 344 419.75 341.65 420.9 339.5C421.1 339.1 420.55 338.8 420.35 339.15Z" fill="black"/>
<path d="M430.501 363.9C432.701 361.35 434.801 358.5 437.201 356.15C439.001 354.4 440.201 354.95 442.251 355.25C443.051 355.4 443.801 355.4 444.601 355.1C445.001 354.95 444.801 354.3 444.451 354.45C442.151 355.25 439.851 353.15 437.701 354.75C436.251 355.8 435.151 357.6 434.001 358.9C432.701 360.4 431.401 361.9 430.101 363.4C429.801 363.75 430.251 364.2 430.501 363.9Z" fill="black"/>
<path d="M436.701 356.75C434.401 380.7 441.351 405.15 455.951 424.3C456.201 424.65 456.751 424.3 456.501 423.95C441.951 404.9 435.051 380.6 437.351 356.75C437.401 356.35 436.751 356.35 436.701 356.75Z" fill="black"/>
<path d="M382.201 419.45C387.551 419.45 392.901 419.45 398.251 419.45C398.651 419.45 398.651 418.8 398.251 418.8C392.901 418.8 387.551 418.8 382.201 418.8C381.751 418.75 381.751 419.45 382.201 419.45Z" fill="black"/>
<path d="M447.75 419.5C453.1 419.2 458.45 418.95 463.8 418.65C464.2 418.65 464.2 417.95 463.8 418C458.45 418.3 453.1 418.55 447.75 418.85C447.35 418.85 447.35 419.5 447.75 419.5Z" fill="black"/>
<path d="M433.601 344.85C437.451 344.6 441.301 344.3 445.151 344.05C445.551 344 445.551 343.35 445.151 343.4C441.301 343.65 437.451 343.95 433.601 344.2C433.201 344.2 433.201 344.85 433.601 344.85Z" fill="black"/>
<path d="M454.8 344.85C456.1 344.85 457.35 344.85 458.65 344.85C459.05 344.85 459.05 344.2 458.65 344.2C457.35 344.2 456.1 344.2 454.8 344.2C454.4 344.2 454.4 344.85 454.8 344.85Z" fill="black"/>
<path d="M426.551 338.1L459.851 342.85C459.601 340.1 459.351 338.1 459.351 338.1H426.551Z" fill="black"/>
<path d="M315.7 272.3H367.2C375.05 272.3 381.45 265.9 381.45 258.05C381.45 250.2 375.05 243.8 367.2 243.8H315.7C307.85 243.8 301.45 250.2 301.45 258.05C301.45 265.95 307.85 272.3 315.7 272.3Z" fill="#4541FC"/>
<path d="M304.601 258.8C304.201 258.8 303.851 258.45 303.851 258.05C303.851 257.9 303.851 257.75 303.851 257.6C303.851 257.2 304.201 256.85 304.651 256.9C305.051 256.9 305.401 257.25 305.351 257.7C305.351 257.85 305.351 257.95 305.351 258.1C305.351 258.5 305.001 258.8 304.601 258.8Z" fill="white"/>
<path d="M304.95 255.9C304.9 255.9 304.8 255.9 304.75 255.9C304.35 255.8 304.1 255.4 304.2 255C305.6 249.6 310.45 245.85 316.05 245.85C316.45 245.85 316.8 246.2 316.8 246.6C316.8 247 316.45 247.35 316.05 247.35C311.15 247.35 306.9 250.65 305.65 255.35C305.6 255.7 305.3 255.9 304.95 255.9Z" fill="white"/>
<path d="M316.601 264.8H366.301C370.051 264.8 373.051 261.8 373.051 258.05C373.051 254.3 370.051 251.3 366.301 251.3H316.601C312.851 251.3 309.851 254.3 309.851 258.05C309.851 261.8 312.901 264.8 316.601 264.8Z" fill="#69B4E8"/>
<path d="M439.05 98.15C444.324 98.15 448.6 93.8744 448.6 88.6C448.6 83.3257 444.324 79.05 439.05 79.05C433.776 79.05 429.5 83.3257 429.5 88.6C429.5 93.8744 433.776 98.15 439.05 98.15Z" stroke="#DCE4F7" stroke-width="4" stroke-miterlimit="10" stroke-linecap="round" stroke-linejoin="round"/>
<path d="M219.601 125.2C224.875 125.2 229.151 120.924 229.151 115.65C229.151 110.376 224.875 106.1 219.601 106.1C214.326 106.1 210.051 110.376 210.051 115.65C210.051 120.924 214.326 125.2 219.601 125.2Z" stroke="#DCE4F7" stroke-width="4" stroke-miterlimit="10" stroke-linecap="round" stroke-linejoin="round"/>
<path d="M454.851 123.05C458.744 123.05 461.901 119.894 461.901 116C461.901 112.106 458.744 108.95 454.851 108.95C450.957 108.95 447.801 112.106 447.801 116C447.801 119.894 450.957 123.05 454.851 123.05Z" stroke="#DCE4F7" stroke-width="4" stroke-miterlimit="10" stroke-linecap="round" stroke-linejoin="round"/>
<path d="M162.901 108.25C166.794 108.25 169.951 105.094 169.951 101.2C169.951 97.3065 166.794 94.1501 162.901 94.1501C159.007 94.1501 155.851 97.3065 155.851 101.2C155.851 105.094 159.007 108.25 162.901 108.25Z" stroke="#DCE4F7" stroke-width="4" stroke-miterlimit="10" stroke-linecap="round" stroke-linejoin="round"/>
<path d="M65.2004 194.4C69.094 194.4 72.2504 191.243 72.2504 187.35C72.2504 183.456 69.094 180.3 65.2004 180.3C61.3068 180.3 58.1504 183.456 58.1504 187.35C58.1504 191.243 61.3068 194.4 65.2004 194.4Z" stroke="#DCE4F7" stroke-width="4" stroke-miterlimit="10" stroke-linecap="round" stroke-linejoin="round"/>
<path d="M198.3 316.9C174.15 316.9 154.6 297.3 154.65 273.2" stroke="#687CCD" stroke-width="3" stroke-miterlimit="10"/>
<path d="M76.1502 121.3C78.9502 122.55 81.7502 123.85 84.5502 125.1C86.0002 125.75 87.3002 123.6 85.8002 122.95C83.0002 121.7 80.2002 120.4 77.4002 119.15C76.0002 118.45 74.7002 120.65 76.1502 121.3Z" fill="#DCE4F7"/>
<path d="M83.7509 108.75C85.7009 110.65 87.6009 112.6 89.5509 114.5C90.7009 115.65 92.4509 113.85 91.3009 112.75C89.3509 110.85 87.4509 108.9 85.5009 107C84.3509 105.85 82.6009 107.65 83.7509 108.75Z" fill="#DCE4F7"/>
<path d="M94.9508 100.25C95.8008 101.95 96.7008 103.65 97.5508 105.35C98.3008 106.8 100.451 105.5 99.7008 104.1C98.8508 102.4 97.9508 100.7 97.1008 99.0001C96.4008 97.5501 94.2508 98.8501 94.9508 100.25Z" fill="#DCE4F7"/>
<path d="M457.651 175.85C460.651 174.8 463.651 173.75 466.651 172.7C468.151 172.15 467.501 169.75 466.001 170.3C463.001 171.35 460.001 172.4 457.001 173.45C455.501 174 456.151 176.4 457.651 175.85Z" fill="#DCE4F7"/>
<path d="M458.7 186.35C461.9 186.1 465.1 185.8 468.35 185.55C469.95 185.4 469.95 182.9 468.35 183.05C465.15 183.3 461.95 183.6 458.7 183.85C457.1 184 457.05 186.5 458.7 186.35Z" fill="#DCE4F7"/>
<path d="M458.15 200.8C461.4 202.6 464.7 204.45 467.95 206.25C469.35 207.05 470.6 204.9 469.2 204.1C465.95 202.3 462.65 200.45 459.4 198.65C458 197.9 456.7 200.05 458.15 200.8Z" fill="#DCE4F7"/>
<path d="M54.3504 252.5C57.5504 252.8 60.7504 253.05 64.0004 253.35C65.6004 253.5 65.6004 251 64.0004 250.85C60.8004 250.55 57.6004 250.3 54.3504 250C52.7504 249.85 52.7504 252.35 54.3504 252.5Z" fill="#DCE4F7"/>
<path d="M55.2501 265.85C57.8501 265.1 60.4501 264.3 63.0501 263.55C64.6001 263.1 63.9501 260.7 62.4001 261.15C59.8001 261.9 57.2001 262.7 54.6001 263.45C53.0501 263.9 53.7001 266.3 55.2501 265.85Z" fill="#DCE4F7"/>
<path d="M60.3502 278.6C62.4502 276.9 64.7002 275.4 67.0502 274.1C68.4502 273.35 67.2002 271.2 65.8002 271.95C63.2502 273.35 60.8502 275 58.6002 276.85C57.3502 277.85 59.1502 279.6 60.3502 278.6Z" fill="#DCE4F7"/>
<path d="M458.051 250.55C461.151 250.65 463.601 253.1 464.051 256.1C464.251 257.7 466.701 257 466.451 255.45C465.851 251.3 462.201 248.2 458.051 248.05C456.451 248 456.451 250.5 458.051 250.55Z" fill="#DCE4F7"/>
<path d="M466.65 249.15C468.65 251.1 469.85 253.45 470.35 256.15C470.65 257.75 473.05 257.05 472.75 255.5C472.2 252.4 470.65 249.6 468.4 247.4C467.25 246.25 465.5 248 466.65 249.15Z" fill="#DCE4F7"/>
<path d="M200.451 279.95C199.451 284.45 201.101 288.85 204.751 291.65C206.051 292.65 207.301 290.45 206.001 289.5C203.301 287.45 202.101 283.95 202.851 280.65C203.201 279.05 200.801 278.35 200.451 279.95Z" fill="#DCE4F7"/>
<path d="M193.2 284.75C192.9 288.25 195.3 291.5 198.65 292.4C200.2 292.8 200.85 290.4 199.3 290C196.95 289.35 195.5 287.15 195.7 284.75C195.85 283.15 193.35 283.15 193.2 284.75Z" fill="#DCE4F7"/>
<path d="M169.45 365.5C172.45 367.7 174.25 371.05 174.45 374.75C174.55 376.35 177.05 376.35 176.95 374.75C176.65 370.1 174.45 366.05 170.7 363.35C169.4 362.35 168.15 364.55 169.45 365.5Z" fill="#DCE4F7"/>
<path d="M176.65 365.75C178.6 368.6 179.85 371.7 180.45 375.05C180.75 376.65 183.15 375.95 182.85 374.4C182.2 370.85 180.85 367.5 178.8 364.5C177.9 363.15 175.75 364.4 176.65 365.75Z" fill="#DCE4F7"/>
<path d="M180.301 207.6C180.301 168.9 211.701 137.55 250.401 137.55" stroke="#687CCD" stroke-width="3" stroke-miterlimit="10"/>
</svg>
