<svg width="540" height="540" viewBox="0 0 540 540" fill="none" xmlns="http://www.w3.org/2000/svg">
<path d="M501.749 485.2H364.399" stroke="#E1E7F4" stroke-width="13" stroke-miterlimit="10" stroke-linecap="round"/>
<path d="M301.75 485.2H60.0498" stroke="#E1E7F4" stroke-width="13" stroke-miterlimit="10" stroke-linecap="round"/>
<path d="M396.05 401.85H169.5C163.15 401.85 157.6 397.4 156.2 391.15L103.35 155.1C102.3 150.45 105.85 146 110.6 146H337.1C343.45 146 349 150.45 350.4 156.7L403.25 392.75C404.3 397.4 400.8 401.85 396.05 401.85Z" fill="#F8FAFF" stroke="#A8B7E2" stroke-width="3" stroke-miterlimit="10"/>
<path d="M105.15 163.05H351.85" stroke="#A8B7E2" stroke-width="3" stroke-miterlimit="10"/>
<path d="M311.6 153.4C312.2 155.75 311.1 158.05 309.15 158.5C307.25 158.95 305.2 157.45 304.65 155.1C304.05 152.75 305.15 150.45 307.1 150C309 149.5 311 151.05 311.6 153.4Z" fill="#9EF482"/>
<path d="M322.6 153.4C323.2 155.75 322.1 158.05 320.15 158.5C318.25 158.95 316.2 157.45 315.65 155.1C315.05 152.75 316.15 150.45 318.1 150C320 149.5 322.05 151.05 322.6 153.4Z" fill="#FFC95E"/>
<path d="M333.6 153.4C334.2 155.75 333.1 158.05 331.15 158.5C329.25 158.95 327.2 157.45 326.65 155.1C326.05 152.75 327.15 150.45 329.1 150C331 149.5 333.05 151.05 333.6 153.4Z" fill="#D44945"/>
<path d="M380.65 390.95H174.15C173.55 390.95 173 390.5 172.85 389.9L167.75 367.15C167.65 366.7 168 366.3 168.45 366.3H374.95C375.55 366.3 376.1 366.75 376.25 367.35L381.35 390.1C381.45 390.55 381.1 390.95 380.65 390.95Z" fill="#FCFCFC"/>
<path d="M288 273.4H148.85C147 273.4 145.35 272.1 144.95 270.25L144.6 268.7C144.05 266.2 145.95 263.8 148.5 263.8H287.6C289.45 263.8 291.1 265.1 291.5 266.95L291.85 268.5C292.45 271 290.55 273.4 288 273.4Z" fill="#B1C3F2"/>
<path d="M251.45 295.65H153.9C152.55 295.65 151.4 294.7 151.15 293.4L150.9 292.3C150.5 290.5 151.85 288.8 153.65 288.8H251.2C252.55 288.8 253.7 289.75 253.95 291.05L254.2 292.15C254.6 293.95 253.25 295.65 251.45 295.65Z" fill="#D0DDF4"/>
<path d="M254.4 310.75H156.85C155.5 310.75 154.35 309.8 154.1 308.5L153.85 307.4C153.45 305.6 154.8 303.9 156.6 303.9H254.15C255.5 303.9 256.65 304.85 256.9 306.15L257.15 307.25C257.55 309.05 256.2 310.75 254.4 310.75Z" fill="#D0DDF4"/>
<path d="M257.3 325.85H159.8C158.45 325.85 157.3 324.9 157.05 323.6L156.8 322.5C156.4 320.7 157.75 319 159.55 319H257.1C258.45 319 259.6 319.95 259.85 321.25L260.1 322.35C260.5 324.15 259.15 325.85 257.3 325.85Z" fill="#D0DDF4"/>
<path d="M260.251 340.95H162.701C161.351 340.95 160.201 340 159.951 338.7L159.701 337.6C159.301 335.8 160.651 334.1 162.451 334.1H260.001C261.351 334.1 262.501 335.05 262.751 336.35L263.001 337.45C263.401 339.25 262.051 340.95 260.251 340.95Z" fill="#D0DDF4"/>
<path d="M263.501 356.05H165.951C164.601 356.05 163.451 355.1 163.201 353.8L162.951 352.7C162.551 350.9 163.901 349.2 165.701 349.2H263.251C264.601 349.2 265.751 350.15 266.001 351.45L266.251 352.55C266.651 354.35 265.301 356.05 263.501 356.05Z" fill="#D0DDF4"/>
<path d="M266.15 371.15H168.6C167.25 371.15 166.1 370.2 165.85 368.9L165.6 367.8C165.2 366 166.55 364.3 168.35 364.3H265.9C267.25 364.3 268.4 365.25 268.65 366.55L268.9 367.65C269.3 369.45 267.95 371.15 266.15 371.15Z" fill="#D0DDF4"/>
<path d="M366.95 295.65H269.4C268.05 295.65 266.9 294.7 266.65 293.4L266.4 292.3C266 290.5 267.35 288.8 269.15 288.8H366.7C368.05 288.8 369.2 289.75 369.45 291.05L369.7 292.15C370.1 293.95 368.75 295.65 366.95 295.65Z" fill="#D0DDF4"/>
<path d="M369.85 310.75H272.35C271 310.75 269.85 309.8 269.6 308.5L269.35 307.4C268.95 305.6 270.3 303.9 272.1 303.9H369.65C371 303.9 372.15 304.85 372.4 306.15L372.65 307.25C373.05 309.05 371.7 310.75 369.85 310.75Z" fill="#D0DDF4"/>
<path d="M372.8 325.85H275.25C273.9 325.85 272.75 324.9 272.5 323.6L272.25 322.5C271.85 320.7 273.2 319 275 319H372.55C373.9 319 375.05 319.95 375.3 321.25L375.55 322.35C376 324.15 374.65 325.85 372.8 325.85Z" fill="#D0DDF4"/>
<path d="M375.751 340.95H278.201C276.851 340.95 275.701 340 275.451 338.7L275.201 337.6C274.801 335.8 276.151 334.1 277.951 334.1H375.501C376.851 334.1 378.001 335.05 378.251 336.35L378.501 337.45C378.901 339.25 377.551 340.95 375.751 340.95Z" fill="#D0DDF4"/>
<path d="M379.001 356.05H281.451C280.101 356.05 278.951 355.1 278.701 353.8L278.451 352.7C278.051 350.9 279.401 349.2 281.201 349.2H378.751C380.101 349.2 381.251 350.15 381.501 351.45L381.751 352.55C382.151 354.35 380.801 356.05 379.001 356.05Z" fill="#D0DDF4"/>
<path d="M381.6 371.15H284.1C282.75 371.15 281.6 370.2 281.35 368.9L281.1 367.8C280.7 366 282.05 364.3 283.85 364.3H381.4C382.75 364.3 383.9 365.25 384.15 366.55L384.4 367.65C384.8 369.45 383.45 371.15 381.6 371.15Z" fill="#D0DDF4"/>
<path d="M217.35 248.8H139.4L123.2 176.4H201.15L217.35 248.8Z" fill="#F8FAFF" stroke="#A8B7E2" stroke-width="3" stroke-miterlimit="10"/>
<path d="M201.15 176.4L139.4 248.8" stroke="#A8B7E2" stroke-width="3" stroke-miterlimit="10"/>
<path d="M123.2 176.4L217.35 248.8" stroke="#A8B7E2" stroke-width="3" stroke-miterlimit="10"/>
<path d="M382.2 248.8H238.35C236.55 248.8 235 247.55 234.6 245.8L219.65 179C219.35 177.7 220.35 176.45 221.7 176.45H365.55C367.35 176.45 368.9 177.7 369.3 179.45L384.25 246.25C384.55 247.55 383.55 248.8 382.2 248.8Z" fill="#FFA79B"/>
<path d="M389.45 245.55H245.6C243.8 245.55 242.25 244.3 241.85 242.55L226.9 175.75C226.6 174.45 227.6 173.2 228.95 173.2H372.8C374.6 173.2 376.15 174.45 376.55 176.2L391.5 243C391.8 244.3 390.8 245.55 389.45 245.55Z" stroke="#D44945" stroke-width="2" stroke-miterlimit="10"/>
<path d="M314.45 189.15H245.5C244.55 189.15 243.75 188.5 243.55 187.6L243.4 186.8C243.1 185.55 244.05 184.35 245.35 184.35H314.3C315.25 184.35 316.05 185 316.25 185.9L316.4 186.7C316.65 187.95 315.75 189.15 314.45 189.15Z" fill="#D44945"/>
<path d="M300.001 197.35H248.101C247.501 197.35 247.001 196.95 246.851 196.35L246.751 195.85C246.551 195.05 247.151 194.3 248.001 194.3H299.901C300.501 194.3 301.001 194.7 301.151 195.3L301.251 195.8C301.451 196.6 300.851 197.35 300.001 197.35Z" fill="#D44945"/>
<path d="M301.35 204.1H249.4C248.8 204.1 248.3 203.7 248.15 203.1L248.05 202.6C247.85 201.8 248.45 201.05 249.3 201.05H301.2C301.8 201.05 302.3 201.45 302.45 202.05L302.55 202.55C302.75 203.35 302.15 204.1 301.35 204.1Z" fill="#D44945"/>
<path d="M302.65 210.8H250.7C250.1 210.8 249.6 210.4 249.45 209.8L249.35 209.3C249.15 208.5 249.75 207.75 250.6 207.75H302.5C303.1 207.75 303.6 208.15 303.75 208.75L303.85 209.25C304.05 210.05 303.45 210.8 302.65 210.8Z" fill="#D44945"/>
<path d="M303.951 217.55H252.051C251.451 217.55 250.951 217.15 250.801 216.55L250.701 216.05C250.501 215.25 251.101 214.5 251.951 214.5H303.851C304.451 214.5 304.951 214.9 305.101 215.5L305.201 216C305.351 216.8 304.751 217.55 303.951 217.55Z" fill="#D44945"/>
<path d="M305.4 224.3H253.45C252.85 224.3 252.35 223.9 252.2 223.3L252.1 222.8C251.9 222 252.5 221.25 253.35 221.25H305.25C305.85 221.25 306.35 221.65 306.5 222.25L306.6 222.75C306.8 223.5 306.2 224.3 305.4 224.3Z" fill="#D44945"/>
<path d="M306.55 231H254.65C254.05 231 253.55 230.6 253.4 230L253.3 229.5C253.1 228.7 253.7 227.95 254.55 227.95H306.45C307.05 227.95 307.55 228.35 307.7 228.95L307.8 229.45C308 230.25 307.4 231 306.55 231Z" fill="#D44945"/>
<path d="M359.051 197.35H307.101C306.501 197.35 306.001 196.95 305.851 196.35L305.751 195.85C305.551 195.05 306.151 194.3 307.001 194.3H358.901C359.501 194.3 360.001 194.7 360.151 195.3L360.251 195.8C360.451 196.6 359.851 197.35 359.051 197.35Z" fill="#D44945"/>
<path d="M360.35 204.1H308.45C307.85 204.1 307.35 203.7 307.2 203.1L307.1 202.6C306.9 201.8 307.5 201.05 308.35 201.05H360.25C360.85 201.05 361.35 201.45 361.5 202.05L361.6 202.55C361.75 203.35 361.15 204.1 360.35 204.1Z" fill="#D44945"/>
<path d="M361.65 210.8H309.75C309.15 210.8 308.65 210.4 308.5 209.8L308.4 209.3C308.2 208.5 308.8 207.75 309.65 207.75H361.55C362.15 207.75 362.65 208.15 362.8 208.75L362.9 209.25C363.05 210.05 362.45 210.8 361.65 210.8Z" fill="#D44945"/>
<path d="M362.951 217.55H311.051C310.451 217.55 309.951 217.15 309.801 216.55L309.701 216.05C309.501 215.25 310.101 214.5 310.951 214.5H362.851C363.451 214.5 363.951 214.9 364.101 215.5L364.201 216C364.351 216.8 363.751 217.55 362.951 217.55Z" fill="#D44945"/>
<path d="M364.4 224.3H312.5C311.9 224.3 311.4 223.9 311.25 223.3L311.15 222.8C310.95 222 311.55 221.25 312.4 221.25H364.3C364.9 221.25 365.4 221.65 365.55 222.25L365.65 222.75C365.8 223.5 365.2 224.3 364.4 224.3Z" fill="#D44945"/>
<path d="M365.6 231H313.65C313.05 231 312.55 230.6 312.4 230L312.3 229.5C312.1 228.7 312.7 227.95 313.55 227.95H365.45C366.05 227.95 366.55 228.35 366.7 228.95L366.8 229.45C367 230.25 366.4 231 365.6 231Z" fill="#D44945"/>
<path d="M118.7 184.35H78.75C78.15 184.35 77.65 183.85 77.5 183.2L77.4 182.6C77.2 181.65 77.8 180.8 78.65 180.8H118.6C119.2 180.8 119.7 181.3 119.85 181.95L119.95 182.55C120.1 183.45 119.5 184.35 118.7 184.35Z" fill="#FFA79B"/>
<path d="M120 192.2H80.0498C79.4498 192.2 78.9498 191.7 78.7998 191.05L78.6998 190.45C78.4998 189.5 79.0998 188.65 79.9498 188.65H119.9C120.5 188.65 121 189.15 121.15 189.8L121.25 190.4C121.4 191.3 120.8 192.2 120 192.2Z" fill="#FFA79B"/>
<path d="M121.3 200H81.3496C80.7496 200 80.2496 199.5 80.0996 198.85L79.9996 198.25C79.7996 197.3 80.3996 196.45 81.2496 196.45H121.2C121.8 196.45 122.3 196.95 122.45 197.6L122.55 198.2C122.7 199.15 122.1 200 121.3 200Z" fill="#FFA79B"/>
<path d="M122.6 207.85H82.6504C82.0504 207.85 81.5504 207.35 81.4004 206.7L81.3004 206.1C81.1004 205.15 81.7004 204.3 82.5504 204.3H122.5C123.1 204.3 123.6 204.8 123.75 205.45L123.85 206.05C124 207 123.4 207.85 122.6 207.85Z" fill="#FFA79B"/>
<path d="M193.5 155.65H163L156.7 127.35H187.15L193.5 155.65Z" fill="#FFE9C5" stroke="#FFC75D" stroke-width="3" stroke-miterlimit="10"/>
<path d="M187.15 127.35L163 155.65" stroke="#FFC75D" stroke-width="3" stroke-miterlimit="10"/>
<path d="M156.7 127.35L193.5 155.65" stroke="#FFC75D" stroke-width="3" stroke-miterlimit="10"/>
<path d="M235.35 131.5H195.4C194.8 131.5 194.3 131 194.15 130.35L194.05 129.75C193.85 128.8 194.45 127.95 195.3 127.95H235.25C235.85 127.95 236.35 128.45 236.5 129.1L236.6 129.7C236.8 130.65 236.2 131.5 235.35 131.5Z" fill="#FFC75D"/>
<path d="M236.65 139.35H196.7C196.1 139.35 195.6 138.85 195.45 138.2L195.35 137.6C195.15 136.65 195.75 135.8 196.6 135.8H236.55C237.15 135.8 237.65 136.3 237.8 136.95L237.9 137.55C238.1 138.5 237.5 139.35 236.65 139.35Z" fill="#FFC75D"/>
<path d="M237.95 147.2H198C197.4 147.2 196.9 146.7 196.75 146.05L196.65 145.45C196.45 144.5 197.05 143.65 197.9 143.65H237.85C238.45 143.65 238.95 144.15 239.1 144.8L239.2 145.4C239.4 146.3 238.8 147.2 237.95 147.2Z" fill="#FFC75D"/>
<path d="M239.301 155.05H199.351C198.751 155.05 198.251 154.55 198.101 153.9L198.001 153.3C197.801 152.35 198.401 151.5 199.251 151.5H239.201C239.801 151.5 240.301 152 240.451 152.65L240.551 153.25C240.701 154.15 240.101 155.05 239.301 155.05Z" fill="#FFC75D"/>
<path d="M434.95 184.4H368.2C367.35 184.4 366.65 183.75 366.45 182.8L359.5 147.8C359.35 147.1 359.85 146.45 360.45 146.45H427.2C428.05 146.45 428.75 147.1 428.95 148.05L435.9 183.05C436.05 183.75 435.55 184.4 434.95 184.4Z" fill="#B1C3F2"/>
<path d="M388.399 158.9L391.949 173.05C392.349 174.6 394.199 175.25 395.449 174.25L406.199 166.1C407.549 165.05 407.299 162.95 405.699 162.3L391.399 156.3C389.749 155.65 387.949 157.15 388.399 158.9Z" fill="#7C95CE"/>
<path d="M389.45 154.75L393 168.9C393.4 170.45 395.25 171.1 396.5 170.1L407.25 161.95C408.6 160.9 408.35 158.8 406.75 158.15L392.45 152.15C390.75 151.45 389 153 389.45 154.75Z" stroke="#41567F" stroke-miterlimit="10"/>
<path d="M364.1 424.85H297.35C296.5 424.85 295.8 424.2 295.6 423.25L288.65 388.25C288.5 387.55 289 386.9 289.6 386.9H356.35C357.2 386.9 357.9 387.55 358.1 388.5L365.05 423.5C365.2 424.2 364.75 424.85 364.1 424.85Z" fill="#FFC75D"/>
<path d="M367.4 420.1H300.6C299.75 420.1 299.05 419.45 298.85 418.5L291.9 383.5C291.75 382.8 292.25 382.15 292.85 382.15H359.6C360.45 382.15 361.15 382.8 361.35 383.75L368.3 418.75C368.45 419.45 368 420.1 367.4 420.1Z" stroke="#EFA52E" stroke-width="3" stroke-miterlimit="10"/>
<path d="M317.55 399.35L321.1 413.5C321.5 415.05 323.35 415.7 324.6 414.7L335.35 406.55C336.7 405.5 336.45 403.4 334.85 402.75L320.55 396.75C318.9 396.05 317.1 397.55 317.55 399.35Z" fill="#EDAA3E"/>
<path d="M190.299 416.35L178.949 483.3" stroke="black" stroke-width="5" stroke-miterlimit="10" stroke-linecap="round"/>
<path d="M240.05 416.35L251.4 483.3" stroke="black" stroke-width="5" stroke-miterlimit="10" stroke-linecap="round"/>
<path d="M217.45 416.35L206.1 483.3" stroke="black" stroke-width="5" stroke-miterlimit="10" stroke-linecap="round"/>
<path d="M267.149 416.35L278.499 483.3" stroke="black" stroke-width="5" stroke-miterlimit="10" stroke-linecap="round"/>
<path d="M234.149 413.1L221.649 330.95C221.199 327.95 217.949 325.7 214.099 325.7H179.399C174.949 325.7 171.499 328.65 171.799 332.15L180.299 418.7C180.549 421.4 183.449 423.5 186.899 423.5H271.549C275.199 423.5 278.149 421.15 278.149 418.3C278.149 415.45 275.199 413.1 271.549 413.1H234.149Z" fill="#FFC75D"/>
<path d="M175.549 329.55C178.899 329.55 178.899 335.45 179.249 337.7C179.799 341.5 180.299 345.3 180.799 349.1C181.699 355.9 182.499 362.65 183.299 369.45C184.949 383.4 186.449 397.35 187.949 411.3C187.949 411.5 188.099 411.65 188.349 411.7C202.849 412.5 217.399 413 231.899 412.3C232.399 412.3 232.399 411.55 231.899 411.55C223.549 411.95 215.149 411.9 206.749 411.7C202.599 411.6 198.399 411.45 194.249 411.25C193.299 411.2 192.349 411.15 191.399 411.1C190.699 411.05 189.249 411.25 188.749 410.75C188.199 410.2 188.349 408.4 188.249 407.65C188.099 406.3 187.949 405 187.799 403.65C185.849 385.7 183.899 367.75 181.549 349.85C180.899 345 180.249 340.2 179.599 335.35C179.249 332.9 178.749 328.85 175.499 328.85C175.049 328.8 175.049 329.55 175.549 329.55Z" fill="black"/>
<path d="M273.399 460.8L182.499 462.5" stroke="black" stroke-width="5" stroke-miterlimit="10" stroke-linecap="round"/>
<path d="M301.349 312.65C304.549 309.35 309.849 309.25 313.199 312.45L319.499 305.95L312.999 299.65C316.199 296.35 316.149 291.05 312.799 287.8C309.499 284.6 304.199 284.65 300.949 288L292.899 280.2L285.849 287.5C289.149 290.7 289.249 296 286.049 299.35C282.849 302.65 277.549 302.75 274.199 299.55L267.149 306.85L293.699 332.6L301.499 324.55C298.199 321.25 298.149 315.95 301.349 312.65Z" fill="#D44945"/>
<path d="M284.2 460.8H266.45L260.05 413.3H214C201.7 413.3 191.75 403.35 191.75 391.05V382.4H265C274.1 382.4 281.55 389.6 281.9 398.65L284.2 460.8Z" fill="#D44945"/>
<path d="M240.749 344.5L230.899 311.55H236.249C244.399 311.55 247.049 318 248.949 322.25L255.099 336.8L240.749 344.5Z" fill="#687CCD"/>
<path d="M280.35 319.55L281.5 312.85C281.55 312.7 281.5 312.55 281.45 312.4L280.9 310.8C280.65 310.15 279.8 310 279.35 310.55L277.7 312.75C276.7 314.1 276.2 315.7 276.2 317.35V320.65L242.95 341.8L243.65 349.75C244 354.1 249.1 356.25 252.5 353.5L281.55 329.65C283.15 330.1 284.85 329.5 285.85 328.15L287.15 326.35L280.35 319.55Z" fill="#FFA79B"/>
<path d="M207.3 311.55H230.85C240.55 311.55 242.2 325.6 241.8 321.5L247.6 382.4H191.7L191.3 327.65C191.25 318.75 198.45 311.55 207.3 311.55Z" fill="#687CCD"/>
<path d="M212.5 299.15L208.2 291.45C207.5 290.15 207.1 288.65 207.1 287.15C207.1 285.5 208.3 284.2 209.8 284.2C209.8 281.45 211.7 279.1 214.2 278.75L228.8 276.8C230.5 276.55 232.2 277.55 232.95 279.3L233.8 281.25C235.2 282.25 235.8 284.1 235.35 285.85L232.6 296.8L212.5 299.15Z" fill="black"/>
<path d="M233.45 286.95L234.85 300.65C235.1 302.9 233.65 304.95 231.45 305.5L227.65 306.45V315.6C227.65 315.6 226.1 319.5 220.15 319.5C214.15 319.5 213.15 315.6 213.15 315.6L215 301.55C213.2 301.55 211.75 300.1 211.75 298.3V296.2C211.75 295.05 212.8 294.2 213.95 294.5L215.8 294.95L219.8 290L219.6 286.95H233.45Z" fill="#FFA79B"/>
<path d="M191.7 386.75L225.5 382.4H191.7V386.75Z" fill="black"/>
<path d="M295.65 485.2H269.75L268.6 476.75C270.95 477.75 272.85 480.15 275.2 478.15C278.75 475.1 281.95 474.15 284.8 475.9L296.3 482.95C297.35 483.6 296.9 485.2 295.65 485.2Z" fill="black"/>
<path d="M284.5 468.05H267.45L266.45 460.8H284.2L284.5 468.05Z" fill="#FFA79B"/>
<path d="M284.799 475.9C281.949 474.15 278.749 475.1 275.199 478.15C272.849 480.15 270.949 477.75 268.599 476.75L267.399 468H284.499L284.799 475.9Z" fill="#FFC75D"/>
<path d="M254.45 460.8H236.65L230.95 413.3L227.25 382.4H235.9C245.05 382.4 252.55 389.7 252.8 398.85L253.2 413.3L254.45 460.8Z" fill="#D44945"/>
<path d="M191.55 359.7L224.1 354.7H191.55V359.7Z" fill="black"/>
<path d="M211.8 311.55H202.85C197.3 311.55 192.45 315.15 190.75 320.4L184.55 339.8L202.55 342.7L211.8 311.55Z" fill="#687CCD"/>
<path d="M267.049 485.2H239.499L238.399 476C240.499 477.05 242.449 478.25 244.249 477.2C247.849 475.1 251.699 473.2 254.749 475.1L267.649 483C268.749 483.6 268.299 485.2 267.049 485.2Z" fill="black"/>
<path d="M254.6 468.05H237.5L236.6 460.8H254.45L254.6 468.05Z" fill="#FFA79B"/>
<path d="M254.8 475.1C251.75 473.25 247.85 475.1 244.3 477.2C242.5 478.25 240.55 477.05 238.45 476L237.5 468.05H254.65L254.8 475.1Z" fill="#FFC75D"/>
<path d="M203.15 312.95C206.15 316.15 207.35 320.5 206.45 324.75C206.35 325.2 207.05 325.4 207.15 324.95C208.15 320.4 206.85 315.8 203.65 312.4C203.35 312.05 202.8 312.6 203.15 312.95Z" fill="black"/>
<path d="M206.249 330.05C205.299 333.75 204.349 337.45 203.399 341.15C203.299 341.6 203.999 341.8 204.099 341.35C205.049 337.65 205.999 333.95 206.949 330.25C207.099 329.75 206.399 329.55 206.249 330.05Z" fill="black"/>
<path d="M235.45 313C238.8 314.6 241.05 317.75 241.45 321.5C241.5 322 242.25 322 242.2 321.5C241.8 317.55 239.45 314.1 235.85 312.35C235.4 312.15 235.05 312.75 235.45 313Z" fill="black"/>
<path d="M241.8 324.85C242.35 330.1 242.9 335.4 243.45 340.65C243.5 341.15 244.25 341.15 244.2 340.65C243.65 335.4 243.1 330.1 242.55 324.85C242.5 324.4 241.75 324.35 241.8 324.85Z" fill="black"/>
<path d="M238.9 383.05C244.9 384.55 250.2 388.6 251.45 394.85C252.65 400.9 252.6 407.15 252.75 413.3C252.75 413.8 253.5 413.8 253.5 413.3C253.3 406.7 253.55 399.7 251.85 393.25C250.35 387.5 244.6 383.7 239.1 382.3C238.65 382.2 238.45 382.95 238.9 383.05Z" fill="black"/>
<path d="M198.5 384.2C197.3 389.1 200.65 393.7 204.95 395.75C210.6 398.5 217.65 398.3 223.8 398.85C225.5 399 227.15 399.15 228.85 399.3C229.7 399.4 230.55 399.45 231.35 399.55C232.3 399.65 233.7 399.55 234.6 399.85C235.95 400.3 235.7 403.4 235.8 404.75C236 406.6 236.15 408.45 236.35 410.25C237.05 417.65 237.8 425.05 238.5 432.45C239.3 440.75 240.1 449.05 240.9 457.35C240.95 457.85 241.7 457.85 241.65 457.35C239.8 438.1 237.9 418.8 236.05 399.55C236.05 399.35 235.9 399.2 235.65 399.15C228.2 398.45 220.75 397.95 213.35 397.05C209.85 396.65 206.15 395.95 203.25 393.8C200.3 391.65 198.25 388 199.2 384.3C199.35 383.95 198.65 383.75 198.5 384.2Z" fill="black"/>
<path d="M253.4 399.5C256.25 399.6 259.05 399.8 261.85 400.1C262.6 400.2 263.85 400.15 264.35 400.8C264.65 401.2 264.55 402.55 264.6 403C264.75 404.25 264.9 405.5 265.05 406.7C265.8 412.35 266.8 417.95 267.7 423.55C269.55 434.65 271.35 445.7 273.2 456.8C273.3 457.3 274 457.05 273.9 456.6C272.4 447.4 270.85 438.2 269.35 429.05C267.75 419.4 265.95 409.8 265 400.05C265 399.9 264.9 399.7 264.7 399.7C260.95 399.2 257.15 398.85 253.35 398.7C252.95 398.75 252.95 399.5 253.4 399.5Z" fill="black"/>
<path d="M238 457.8C243.45 457.8 248.95 457.8 254.4 457.8C254.9 457.8 254.9 457.05 254.4 457.05C248.95 457.05 243.45 457.05 238 457.05C237.5 457.05 237.5 457.8 238 457.8Z" fill="black"/>
<path d="M267.45 457.8C272.9 457.8 278.35 457.8 283.85 457.8C284.35 457.8 284.35 457.05 283.85 457.05C278.4 457.05 272.95 457.05 267.45 457.05C266.95 457.05 266.95 457.8 267.45 457.8Z" fill="black"/>
<path d="M201.5 383.75C202.4 386.25 203.35 389.4 200.95 391.35C200.55 391.65 201.1 392.2 201.5 391.9C204.1 389.8 203.25 386.3 202.25 383.6C202.1 383.1 201.35 383.3 201.5 383.75Z" fill="black"/>
<path d="M192.2 393.85C193.95 393.85 195.75 393.85 197.5 393.85C198 393.85 198 393.1 197.5 393.1C195.75 393.1 193.95 393.1 192.2 393.1C191.7 393.1 191.7 393.85 192.2 393.85Z" fill="black"/>
<path d="M195.199 357.3C194.149 365.85 194.049 374.45 194.899 383C194.949 383.5 195.699 383.5 195.649 383C194.799 374.45 194.899 365.85 195.949 357.3C195.999 356.85 195.249 356.85 195.199 357.3Z" fill="black"/>
<path d="M227.299 305.8C225.849 306 224.349 306.15 222.899 306.25C222.399 306.3 222.399 307.05 222.899 307C224.449 306.9 225.949 306.75 227.499 306.55C227.949 306.45 227.749 305.7 227.299 305.8Z" fill="black"/>
<path d="M213.35 298.15C213.35 297.75 213.3 297.3 213.45 296.9C213.6 296.5 214.2 296.05 214.5 296.6C214.7 296.95 214.75 297.45 214.85 297.85C215 298.35 215.1 298.8 215.2 299.3C215.45 299.2 215.65 299.1 215.9 299C215.55 298.4 215.05 297.95 214.4 297.7C213.95 297.5 213.6 298.15 214 298.35C214.5 298.6 214.9 298.9 215.2 299.4C215.45 299.75 215.95 299.5 215.9 299.1C215.7 298.25 215.55 297.35 215.25 296.5C215.1 296.05 214.8 295.65 214.25 295.6C212.8 295.45 212.55 297.05 212.6 298.15C212.6 298.6 213.35 298.6 213.35 298.15Z" fill="black"/>
<path d="M230 292.5C230.45 293.85 230.95 295.15 231.5 296.45C231.6 296.3 231.75 296.15 231.85 296C231.25 296.1 230.6 296.15 230 296.25C229.55 296.3 229.5 297.05 230 297C230.6 296.9 231.25 296.85 231.85 296.75C232.05 296.7 232.3 296.55 232.2 296.3C231.7 295 231.2 293.65 230.7 292.35C230.55 291.85 229.85 292.05 230 292.5Z" fill="black"/>
<path d="M229.7 300.7C228.3 300.45 226.95 300.1 225.55 299.75C225.3 299.7 225.1 299.85 225.1 300.1C224.95 301.1 225.5 302.05 226.4 302.5C226.85 302.7 227.2 302.05 226.8 301.85C226.1 301.5 225.8 300.85 225.9 300.1C225.75 300.2 225.6 300.35 225.45 300.45C226.8 300.8 228.2 301.15 229.6 301.4C230 301.5 230.2 300.75 229.7 300.7Z" fill="black"/>
<path d="M211.85 317.55C213.85 320.75 217.5 322.05 221.15 321.8C224.2 321.6 228.8 320.55 229.05 316.8C229.1 316.3 228.35 316.3 228.3 316.8C228.1 320.45 222.55 321.2 219.8 321.05C216.85 320.95 214.1 319.65 212.55 317.15C212.25 316.75 211.6 317.1 211.85 317.55Z" fill="black"/>
<path d="M186 337.7C191.2 339.5 196.55 340.6 202 341.05C202.5 341.1 202.5 340.35 202 340.3C196.6 339.85 191.3 338.7 186.2 336.95C185.75 336.8 185.55 337.55 186 337.7Z" fill="black"/>
<path d="M244.999 338.55C247.999 337.4 250.799 335.95 253.449 334.15C253.849 333.9 253.449 333.25 253.049 333.5C250.449 335.25 247.699 336.7 244.799 337.8C244.399 338 244.549 338.7 244.999 338.55Z" fill="black"/>
<path d="M280.45 320.35C281.45 321.6 281.6 323.3 280.85 324.75C280.6 325.2 281.25 325.55 281.5 325.15C282.45 323.4 282.2 321.4 281 319.85C280.7 319.45 280.15 320 280.45 320.35Z" fill="black"/>
<path d="M232.7 392.6L244.2 392.75L244.3 382.35C239.55 382.3 235.8 378.4 235.85 373.7C235.9 368.95 239.8 365.2 244.5 365.25L244.6 354.85L212.9 354.45C209.5 354.4 206.7 357.15 206.65 360.55L206.25 392.25L215.5 392.35C215.45 397.1 219.25 400.95 223.95 401C228.75 401.1 232.65 397.3 232.7 392.6Z" fill="#FFC75D"/>
<path d="M240.849 353.8C240.199 350.6 234.099 347.05 230.049 346.35L186.899 340.1L185.049 346.4C183.849 350.55 186.949 354.65 191.249 354.65H229.999C229.999 355.65 230.849 356.65 232.749 357.15C234.699 357.65 235.649 359.95 235.449 362C235.249 364.05 237.349 364.7 238.499 363.2C239.749 361.75 241.449 357.05 240.849 353.8Z" fill="#FFA79B"/>
<path d="M235.45 354.75C237.2 356.45 238.1 358.65 237.9 361.1C237.85 361.6 238.6 361.6 238.65 361.1C238.85 358.5 237.85 356 235.95 354.2C235.65 353.9 235.1 354.4 235.45 354.75Z" fill="black"/>
<path d="M237.55 353.65C238.2 354.45 238.85 355.25 239.45 356.05C239.75 356.45 240.3 355.9 240 355.5C239.35 354.7 238.7 353.9 238.1 353.1C237.75 352.75 237.25 353.25 237.55 353.65Z" fill="black"/>
<path d="M487.999 276.2L488.599 277.65C490.549 282.15 488.899 287.35 484.749 289.95L456.899 307.35H444.999L449.049 298.9H456.899L469.399 283L487.999 276.2Z" fill="#9A2929"/>
<path d="M326.049 252.75L314.949 253.1L318.499 261.95C323.099 261.8 329.149 263.15 330.999 268.45C332.449 272.6 327.499 276.45 322.849 276.6L326.199 285.8L357.149 284.85C360.449 284.75 363.099 282.1 362.999 278.95L353.149 251.95L342.749 252.2C341.049 247 335.849 244.4 331.249 244.55C326.699 244.75 322.849 248.85 326.049 252.75Z" fill="#687CCD"/>
<path d="M430.199 216.55V231.15C430.199 234 432.849 236.05 435.599 235.4L440.799 234.15V243.65H456.899L454.549 218.85C454.549 214.05 450.649 210.15 445.849 210.15H436.599C433.099 210.1 430.199 213 430.199 216.55Z" fill="#9A2929"/>
<path d="M441.85 243.6H461.35C468 243.6 473.7 248.45 474.7 255.05L485.6 319.55H428.35V257.1C428.35 249.65 434.35 243.6 441.85 243.6Z" fill="#FFA79B"/>
<path d="M440.199 243.6L428.299 270.6L412.549 279.5L399.799 261.55L424.999 245.65C427.149 244.3 429.649 243.55 432.199 243.55H440.199V243.6Z" fill="#FFA79B"/>
<path d="M459.399 243.6H464.349C469.849 243.6 474.849 246.8 477.099 251.85L488.049 276.15L470.099 285.4L459.399 243.6Z" fill="#FFA79B"/>
<path d="M430.199 205.5V215.7H442.399L444.849 222.65L446.599 221.65C448.649 220.5 451.149 221.95 451.149 224.3C451.149 226.2 450.149 227.95 448.549 228.95L447.699 229.45L454.599 233.1L458.649 224.85C461.249 219.6 459.499 213.25 454.599 210.1C454.599 206.15 451.949 202.75 448.099 201.8L438.099 199.3C435.599 198.65 432.899 199.65 431.399 201.75C430.649 202.85 430.199 204.15 430.199 205.5Z" fill="black"/>
<path d="M479.749 393.5L485.299 445.95H467.849L458.199 406.7C456.449 399.6 455.299 392.35 454.749 385.05L451.649 342.2L406.999 359.7L412.599 401.1H394.399L383.599 358.25C381.899 351.55 384.849 344.6 390.849 341.15L428.349 319.55H485.549L487.299 334.05C487.749 337.9 487.699 341.85 487.099 345.65L479.749 393.5Z" fill="#687CCD"/>
<path d="M413.549 408.2C407.599 408.2 406.999 407.45 404.649 409.8C402.299 412.2 403.349 408.55 396.299 408.55L394.399 401.15H412.599L413.549 408.2Z" fill="#9A2929"/>
<path d="M414.849 417.55H385.849C384.449 417.55 383.949 415.7 385.149 415L396.299 408.55C403.299 408.55 402.249 412.15 404.649 409.8C407.049 407.45 407.599 408.2 413.549 408.2L414.849 417.55Z" fill="#FFC75D"/>
<path d="M487.049 462.4H458.999C457.599 462.4 457.099 460.6 458.299 459.9L468.449 453.85C468.999 454.05 469.399 454.2 469.599 454.2C472.899 454.2 475.349 456.35 477.499 454.2C479.649 452.05 485.499 454.2 485.499 454.2L486.099 453.85L487.049 462.4Z" fill="#FFC75D"/>
<path d="M399.799 261.6L362.449 266.75L355.799 264.8C354.499 264.4 353.049 264.7 351.949 265.55L348.349 268.35C346.949 269.45 347.099 271.6 348.649 272.45C350.949 273.7 353.699 273.55 355.849 272.1L357.949 270.65L359.099 272.2C361.049 274.8 364.549 275.75 367.549 274.55L410.449 276.65L399.799 261.6Z" fill="#9A2929"/>
<path d="M486.149 453.8L485.549 454.15C485.549 454.15 479.699 452 477.549 454.15C475.399 456.3 472.949 454.15 469.649 454.15C469.449 454.15 469.049 454.05 468.499 453.8L469.649 453.1L467.899 445.95H485.349L486.149 453.8Z" fill="#9A2929"/>
<path d="M453.999 462.55V439.85H418.549V417.15H383.149V439.85V485.2H453.999H457.599H489.449V462.55H453.999Z" fill="#D44945"/>
<path d="M448.6 319.55L486.25 325.2L485.55 319.55H448.6Z" fill="black"/>
<path d="M473.449 263.65C474.649 269.15 476.099 274.65 477.699 280.05C477.849 280.5 478.549 280.3 478.399 279.85C476.799 274.45 475.399 268.95 474.149 263.45C474.049 263 473.349 263.2 473.449 263.65Z" fill="black"/>
<path d="M403.599 261.75C406.399 266.7 409.599 271.45 413.099 275.9C413.399 276.3 413.899 275.75 413.649 275.35C410.149 270.9 407.049 266.25 404.249 261.35C403.999 260.95 403.349 261.35 403.599 261.75Z" fill="black"/>
<path d="M477.549 277.2C480.899 276.4 484.149 275.3 487.249 273.9C487.699 273.7 487.299 273.05 486.849 273.25C483.799 274.65 480.599 275.75 477.299 276.5C476.899 276.6 477.099 277.3 477.549 277.2Z" fill="black"/>
<path d="M439.599 244.55C441.299 246.55 444.799 246.25 447.099 246.25C450.749 246.25 454.349 245.8 457.899 244.95C458.349 244.85 458.149 244.1 457.699 244.25C454.699 245 451.599 245.4 448.499 245.5C446.099 245.55 441.849 246.1 440.099 244.05C439.849 243.7 439.299 244.2 439.599 244.55Z" fill="black"/>
<path d="M453.449 342.05C457.449 342.4 461.499 342.75 465.499 343.1C465.999 343.15 465.999 342.4 465.499 342.35C461.499 342 457.449 341.65 453.449 341.3C452.949 341.25 452.949 342 453.449 342.05Z" fill="black"/>
<path d="M401.499 356.15C402.799 357.6 404.099 359 405.399 360.45C405.699 360.8 406.249 360.3 405.949 359.9C404.649 358.45 403.349 357.05 402.049 355.6C401.699 355.25 401.149 355.8 401.499 356.15Z" fill="black"/>
<path d="M474.649 393.4C476.249 393.25 477.849 393.1 479.449 392.95C479.949 392.9 479.949 392.15 479.449 392.2C477.849 392.35 476.249 392.5 474.649 392.65C474.149 392.7 474.149 393.45 474.649 393.4Z" fill="black"/>
<path d="M457.2 342.3C456.25 369.1 458.85 395.95 464.95 422.05C466.7 429.6 468.75 437.05 471.1 444.4C471.25 444.85 471.95 444.65 471.8 444.2C463.7 418.6 459 391.95 457.95 365.1C457.65 357.5 457.65 349.9 457.9 342.25C458 341.8 457.25 341.8 457.2 342.3Z" fill="black"/>
<path d="M442.799 319.25C429.999 325.85 417.649 333.15 405.649 341.1C401.149 344.1 394.949 347.2 392.849 352.55C391.599 355.7 392.299 359 392.999 362.2C393.849 366.05 394.749 369.9 395.599 373.75C397.549 382.4 399.499 391.1 401.449 399.75C401.549 400.2 402.299 400 402.149 399.55C400.499 392.3 398.899 385.1 397.249 377.85C396.449 374.25 395.599 370.6 394.799 367C393.999 363.5 392.749 359.7 392.849 356.1C393.049 349 400.799 345.15 405.949 341.75C411.499 338.1 417.099 334.55 422.799 331.15C429.449 327.2 436.199 323.45 443.099 319.9C443.599 319.65 443.199 319.05 442.799 319.25Z" fill="black"/>
<path d="M396.049 399.1C401.049 399.1 405.999 399.1 410.999 399.1C411.499 399.1 411.499 398.35 410.999 398.35C405.999 398.35 401.049 398.35 396.049 398.35C395.549 398.35 395.549 399.1 396.049 399.1Z" fill="black"/>
<path d="M467.949 443.8C473.649 442.7 479.399 442.65 485.099 443.6C485.549 443.7 485.799 442.95 485.299 442.9C479.449 441.95 473.549 442 467.749 443.1C467.299 443.15 467.499 443.9 467.949 443.8Z" fill="black"/>
<path d="M450.549 328.55C455.349 328.7 460.149 329.3 464.849 330.35C465.299 330.45 465.499 329.75 465.049 329.65C460.249 328.6 455.449 328 450.549 327.85C450.049 327.8 450.049 328.55 450.549 328.55Z" fill="black"/>
<path d="M475.599 331.2C479.199 330.7 482.749 331.15 486.099 332.5C486.549 332.7 486.749 331.95 486.299 331.8C482.849 330.45 479.249 330 475.599 330.45C475.149 330.5 475.149 331.25 475.599 331.2Z" fill="black"/>
<path d="M435.499 320.45C432.999 320.8 430.849 322.35 429.649 324.65C429.449 325.1 430.099 325.45 430.299 325.05C431.399 322.95 433.349 321.55 435.699 321.2C436.199 321.1 435.999 320.4 435.499 320.45Z" fill="black"/>
<path d="M429.899 270.3C432.099 269.9 434.649 268.9 436.449 267.6C436.849 267.35 436.449 266.7 436.049 266.95C434.249 268.2 431.799 269.2 429.649 269.55C429.249 269.65 429.449 270.35 429.899 270.3Z" fill="black"/>
<path d="M431.799 270.85C434.799 286.45 439.099 301.75 442.149 317.3C442.249 317.75 442.949 317.55 442.849 317.1C439.849 301.5 435.549 286.2 432.499 270.65C432.399 270.15 431.699 270.35 431.799 270.85Z" fill="black"/>
<path d="M430.149 245.55C434.849 248.95 437.599 254.45 437.499 260.25C437.499 260.75 438.249 260.75 438.249 260.25C438.349 254.15 435.449 248.5 430.499 244.9C430.099 244.6 429.749 245.25 430.149 245.55Z" fill="black"/>
<path d="M465.949 245.85C470.449 249.1 473.199 254.2 473.449 259.75C473.449 260.25 474.199 260.25 474.199 259.75C473.899 253.95 470.999 248.65 466.299 245.2C465.899 244.9 465.549 245.55 465.949 245.85Z" fill="black"/>
<path d="M348.899 270.1C350.649 269.8 352.199 268.95 353.449 267.75C353.799 267.4 353.249 266.9 352.899 267.2C351.749 268.35 350.299 269.1 348.699 269.4C348.199 269.45 348.399 270.2 348.899 270.1Z" fill="black"/>
<path d="M351.299 272.6C352.949 272 354.349 271 355.399 269.55C355.699 269.15 355.049 268.8 354.749 269.15C353.849 270.4 352.599 271.35 351.099 271.85C350.649 272.05 350.849 272.8 351.299 272.6Z" fill="black"/>
<path d="M432.05 221.55C431.6 222.75 430.95 225.2 432.75 225.7C433.7 226 435.3 225.3 434.8 224.1C434.6 223.65 433.9 223.85 434.1 224.3C434.4 225.05 433.1 225.2 432.7 224.85C431.85 224.15 432.5 222.6 432.8 221.8C432.95 221.3 432.25 221.1 432.05 221.55Z" fill="black"/>
<path d="M432.799 229.9C434.599 231.25 437.249 230.4 438.099 228.4C438.299 227.95 437.549 227.75 437.399 228.2C436.749 229.85 434.549 230.3 433.199 229.25C432.799 228.95 432.399 229.6 432.799 229.9Z" fill="black"/>
<path d="M449.049 224.55C449.049 223.05 447.249 222.4 446.149 223.3C444.549 224.65 445.449 226.85 446.299 228.3C446.399 228.45 446.549 228.5 446.699 228.45C447.849 228.1 448.349 226.9 447.849 225.8C447.649 225.35 446.999 225.75 447.199 226.2C447.499 226.8 447.149 227.55 446.499 227.75C446.649 227.8 446.799 227.85 446.899 227.9C446.399 226.95 445.749 225.9 446.049 224.8C446.149 224.3 446.449 223.85 446.949 223.65C447.549 223.45 448.249 223.8 448.249 224.5C448.299 225 449.049 225 449.049 224.55Z" fill="black"/>
<path d="M111.649 246.1C114.199 242.9 114.199 238.4 111.699 235.2L108.699 231.35C107.899 230.35 106.449 230.25 105.549 231.1L100.999 235.25H96.499C88.599 235.25 82.199 241.65 82.199 249.55V255.2C82.199 257.1 82.949 258.9 84.299 260.25L74.199 280.8C72.949 283.35 74.799 286.35 77.649 286.35H115.999L111.649 246.1Z" fill="#FFC75D"/>
<path d="M118.749 315.75L144.299 327.55L147.899 324.6C149.799 323 152.599 323 154.549 324.5L157.549 326.85C158.799 327.85 158.249 329.9 156.649 330.1C155.199 330.3 153.699 330 152.399 329.25L151.149 328.55L149.849 331.25C148.199 334.7 144.299 336.4 140.649 335.25L119.049 329.1L118.749 315.75Z" fill="#FFA79B"/>
<path d="M90.8996 272.85H86.9496C80.9496 272.85 76.3496 278.15 77.1996 284.1L81.9996 311.45C82.3496 313.5 82.2996 315.6 81.8996 317.65L75.5996 347H123.45L118.25 312.35L120.95 298.55L123.2 297C127.25 294.25 128.2 288.75 125.35 284.8L121.1 279C118.3 275.15 113.8 272.85 109 272.85H90.8996Z" fill="#D44945"/>
<path d="M118.099 311.45L119.049 307.35L114.049 306.3L95.5993 286.45C92.1993 282.8 88.1993 281.25 85.3993 285.45C84.1993 287.05 82.7993 290.4 85.6993 292.95L104.299 314.8C106.199 316.5 108.599 317.5 111.099 317.7L119.049 317.9L118.099 311.45Z" fill="black"/>
<path d="M82.2494 282.1C80.0994 285.35 80.6494 289.65 83.5494 292.25L103.099 309.5C104.999 311.2 107.399 312.2 109.899 312.4L142.749 315L151.099 312.8L151.799 312.9C153.649 313.15 154.949 311.2 153.999 309.6L152.649 307.4C151.649 305.75 149.949 304.6 148.049 304.25L146.649 304C145.049 303.75 143.449 304.05 142.049 304.9L139.199 306.65L112.749 301L94.2994 281.15C90.9994 277.45 85.0494 277.9 82.2494 282.1Z" fill="#FFA79B"/>
<path d="M109.199 240.65L115.349 254.05C117.399 258.5 114.799 263.7 110.049 264.8L107.299 265.45V272.9C107.299 272.9 106.949 278.35 101.049 278.35C95.1494 278.35 94.0994 272.9 94.0994 272.9L96.6994 259.45C93.4994 259.45 90.8994 256.85 90.8994 253.65V251.9C90.8994 249.7 93.0494 248.1 95.1494 248.7L97.6494 249.45C97.6494 249.45 102.949 253.35 109.199 240.65Z" fill="#FFA79B"/>
<path d="M134.849 468.9L118.899 469.8L112.249 440.15C111.149 436.1 110.849 431.85 111.349 427.65L112.849 415.25L101.499 377.35L101.749 417.9L96.9994 471.25L82.1494 472.2L76.8494 439.35C76.2994 435.8 76.3494 432.2 77.0494 428.7L79.2994 417.55L73.1494 369.8C72.6494 366 72.7494 362.15 73.4494 358.4L75.5494 347H123.399L133.999 411.85C134.149 412.85 134.249 413.85 134.249 414.85L134.849 468.9Z" fill="#687CCD"/>
<path d="M106.899 483.75L96.6992 475.05L97.0492 471.3L82.1992 472.25L83.2492 478.65L82.7492 485.25H106.499C107.299 485.2 107.599 484.15 106.899 483.75Z" fill="black"/>
<path d="M146.749 483.75L134.949 475.05L134.899 468.9L118.949 469.8L121.049 477.6L120.949 485.2H146.299C147.049 485.2 147.349 484.25 146.749 483.75Z" fill="black"/>
<path d="M120.85 297.7C118.65 297.5 116.5 297.65 114.3 298.05C113.85 298.15 114.05 298.85 114.5 298.75C116.6 298.35 118.7 298.25 120.85 298.4C121.35 298.5 121.35 297.75 120.85 297.7Z" fill="black"/>
<path d="M87.9997 274.3C90.9997 274.75 93.3497 277 93.9997 279.95C94.0997 280.4 94.8497 280.2 94.6997 279.75C93.9997 276.55 91.3997 274.1 88.1997 273.55C87.7497 273.5 87.5497 274.2 87.9997 274.3Z" fill="black"/>
<path d="M88.2998 297.45C89.4998 313.35 88.9998 329.3 86.6998 345.1C86.6498 345.55 87.3498 345.8 87.3998 345.3C89.6998 329.45 90.2498 313.4 89.0498 297.45C88.9998 296.95 88.2498 296.95 88.2998 297.45Z" fill="black"/>
<path d="M104.849 347.75C105.299 357.1 104.349 366.45 101.949 375.55C101.849 376 102.549 376.2 102.649 375.75C105.049 366.6 106.049 357.2 105.549 347.75C105.549 347.3 104.799 347.3 104.849 347.75Z" fill="black"/>
<path d="M104.05 369.2C106.85 367.5 109.75 366 112.7 364.7C113.15 364.5 112.75 363.85 112.3 364.05C109.3 365.4 106.45 366.9 103.65 368.55C103.3 368.8 103.65 369.45 104.05 369.2Z" fill="black"/>
<path d="M107.349 347.35C107.649 350.25 107.099 353 105.549 355.55C105.299 355.95 105.949 356.35 106.199 355.95C107.749 353.35 108.399 350.4 108.099 347.4C108.049 346.85 107.299 346.85 107.349 347.35Z" fill="black"/>
<path d="M86.1492 347.3C83.3992 354.3 84.8492 362.25 85.3992 369.5C86.0492 377.85 86.6992 386.2 87.3992 394.55C88.0492 402.7 89.0992 410.95 88.6492 419.1C88.1992 427.35 86.4492 435.5 85.7492 443.75C84.9492 453 85.3492 462.3 86.5992 471.45C86.6492 471.95 87.3992 471.7 87.2992 471.25C86.1492 462.85 85.7492 454.4 86.3492 445.95C86.8992 437.9 88.4992 430 89.1992 421.95C89.8992 414 89.0992 406.1 88.4492 398.2C87.7992 390.1 87.1492 382 86.4992 373.9C86.1492 369.35 85.7492 364.8 85.4492 360.25C85.1992 355.95 85.2492 351.6 86.8492 347.5C87.0492 347.05 86.3492 346.85 86.1492 347.3Z" fill="black"/>
<path d="M89.249 347.35C87.399 351.35 88.599 355.95 85.199 359.25C84.849 359.6 85.399 360.1 85.749 359.8C87.049 358.55 88.049 357 88.399 355.2C88.949 352.65 88.749 350.25 89.899 347.8C90.099 347.3 89.449 346.9 89.249 347.35Z" fill="black"/>
<path d="M73.9492 359.25C75.3992 359.2 76.7992 359.1 78.2492 359.05C78.7492 359.05 78.7492 358.3 78.2492 358.3C76.7992 358.35 75.3992 358.45 73.9492 358.5C73.4492 358.5 73.4492 359.25 73.9492 359.25Z" fill="black"/>
<path d="M105.999 368.15C107.949 374.6 109.899 381.05 111.899 387.5C113.849 393.95 116.049 400.35 117.399 406.95C118.799 413.8 118.149 420.5 118.199 427.45C118.249 433.75 119.099 440.05 120.099 446.25C121.299 453.85 122.699 461.4 123.199 469.05C123.249 469.55 123.999 469.55 123.949 469.05C123.099 455.8 119.449 442.85 118.999 429.55C118.799 423 119.649 416.4 118.699 409.9C117.749 403.3 115.499 396.9 113.599 390.5C111.299 383 109.049 375.5 106.749 367.95C106.599 367.45 105.849 367.65 105.999 368.15Z" fill="black"/>
<path d="M76.749 343.2C91.899 343.2 107.049 343.3 122.199 343.55C122.699 343.55 122.699 342.8 122.199 342.8C107.049 342.55 91.899 342.45 76.749 342.45C76.249 342.45 76.249 343.2 76.749 343.2Z" fill="black"/>
<path d="M75.5994 346.95L74.6494 352.1L99.4494 346.95H75.5994Z" fill="black"/>
<path d="M93.2997 252.8C92.9497 252.3 93.2997 251.5 93.7497 251.3C94.1997 251.1 94.5997 251.1 95.0497 251.3C95.7997 251.55 96.3497 252.2 96.7497 252.85C97.4497 254 97.6997 255.3 97.5497 256.6C97.4997 257 98.0997 257.1 98.2497 256.8C99.2497 254.95 97.0997 253.9 95.5497 254C95.0497 254.05 95.0497 254.8 95.5497 254.75C96.3997 254.7 98.3497 255 97.5997 256.4C97.8497 256.45 98.0497 256.55 98.2997 256.6C98.5997 254.3 97.5497 251.3 95.1497 250.55C93.4497 250 91.4997 251.75 92.7497 253.4C93.0497 253.7 93.5997 253.2 93.2997 252.8Z" fill="black"/>
<path d="M109.349 248.95C109.749 249.7 110.399 250.1 111.099 250.55C111.599 250.85 112.099 251.15 112.349 251.7C112.649 252.45 112.349 253.3 111.649 253.7C111.249 253.95 111.599 254.6 112.049 254.35C112.999 253.7 113.499 252.5 113.049 251.4C112.449 250 110.699 249.85 109.999 248.55C109.799 248.15 109.149 248.55 109.349 248.95Z" fill="black"/>
<path d="M113.05 257.3C110.95 257.9 108.9 257.95 106.8 257.45C106.55 257.4 106.35 257.55 106.35 257.8C106.35 259.95 108.4 261.55 110.5 261C110.95 260.9 110.75 260.15 110.3 260.3C108.7 260.75 107.1 259.45 107.1 257.8C106.95 257.9 106.8 258.05 106.65 258.15C108.9 258.7 111.1 258.65 113.3 258C113.7 257.9 113.5 257.2 113.05 257.3Z" fill="black"/>
<path d="M107.4 265.1C105.05 265 102.5 264.85 100.9 262.9C100.6 262.5 100.05 263.05 100.35 263.45C102.05 265.55 104.85 265.8 107.35 265.9C107.85 265.85 107.85 265.1 107.4 265.1Z" fill="black"/>
<path d="M145.599 307.05C147.399 306.8 149.249 306.5 151.049 306.25C151.549 306.2 151.299 305.45 150.849 305.55C149.049 305.8 147.199 306.1 145.399 306.35C144.949 306.4 145.149 307.1 145.599 307.05Z" fill="black"/>
<path d="M148.2 308.7C149.85 308.35 151.5 308.3 153.15 308.55C153.6 308.6 153.85 307.9 153.35 307.85C151.55 307.6 149.8 307.65 148 308C147.55 308.05 147.75 308.8 148.2 308.7Z" fill="black"/>
<path d="M149.899 311.15C150.849 310.65 151.849 310.5 152.899 310.55C153.399 310.6 153.399 309.85 152.899 309.8C151.699 309.7 150.549 309.95 149.499 310.5C149.049 310.7 149.449 311.35 149.899 311.15Z" fill="black"/>
<path d="M80.4494 163.1C83.6527 163.1 86.2494 160.503 86.2494 157.3C86.2494 154.097 83.6527 151.5 80.4494 151.5C77.2462 151.5 74.6494 154.097 74.6494 157.3C74.6494 160.503 77.2462 163.1 80.4494 163.1Z" stroke="#A8B7E2" stroke-width="3" stroke-miterlimit="10"/>
<path d="M68.4994 230.2C72.8348 230.2 76.3494 226.685 76.3494 222.35C76.3494 218.015 72.8348 214.5 68.4994 214.5C64.164 214.5 60.6494 218.015 60.6494 222.35C60.6494 226.685 64.164 230.2 68.4994 230.2Z" stroke="#A8B7E2" stroke-width="3" stroke-miterlimit="10"/>
<path d="M334.542 124.574C336.357 123.994 337.357 122.052 336.776 120.237C336.196 118.422 334.254 117.422 332.439 118.003C330.624 118.584 329.624 120.526 330.205 122.34C330.786 124.155 332.728 125.155 334.542 124.574Z" stroke="#A8B7E2" stroke-width="3" stroke-miterlimit="10"/>
<path d="M361.7 127.35C365.373 127.35 368.35 124.373 368.35 120.7C368.35 117.027 365.373 114.05 361.7 114.05C358.027 114.05 355.05 117.027 355.05 120.7C355.05 124.373 358.027 127.35 361.7 127.35Z" stroke="#A8B7E2" stroke-width="3" stroke-miterlimit="10"/>
<path d="M482.192 231.485C482.622 229.431 481.306 227.417 479.252 226.986C477.198 226.555 475.184 227.871 474.753 229.925C474.323 231.979 475.639 233.993 477.693 234.424C479.747 234.855 481.761 233.539 482.192 231.485Z" stroke="#A8B7E2" stroke-width="3" stroke-miterlimit="10"/>
<path d="M473.76 206.295C474.346 202.474 471.725 198.901 467.903 198.314C464.082 197.727 460.509 200.349 459.922 204.17C459.335 207.991 461.957 211.565 465.778 212.151C469.599 212.738 473.173 210.116 473.76 206.295Z" stroke="#A8B7E2" stroke-width="3" stroke-miterlimit="10"/>
<path d="M55.4996 416.15C58.3439 416.15 60.6496 413.844 60.6496 411C60.6496 408.156 58.3439 405.85 55.4996 405.85C52.6553 405.85 50.3496 408.156 50.3496 411C50.3496 413.844 52.6553 416.15 55.4996 416.15Z" stroke="#A8B7E2" stroke-width="3" stroke-miterlimit="10"/>
<path d="M66.7996 384.55C68.4289 384.55 69.7496 383.229 69.7496 381.6C69.7496 379.971 68.4289 378.65 66.7996 378.65C65.1704 378.65 63.8496 379.971 63.8496 381.6C63.8496 383.229 65.1704 384.55 66.7996 384.55Z" stroke="#A8B7E2" stroke-width="3" stroke-miterlimit="10"/>
<path d="M323.91 457.521C324.242 455.477 322.854 453.551 320.809 453.219C318.765 452.887 316.839 454.276 316.507 456.32C316.175 458.364 317.564 460.29 319.608 460.622C321.652 460.954 323.578 459.566 323.91 457.521Z" stroke="#A8B7E2" stroke-width="3" stroke-miterlimit="10"/>
<path d="M345.75 452.8C349.837 452.8 353.15 449.487 353.15 445.4C353.15 441.313 349.837 438 345.75 438C341.663 438 338.35 441.313 338.35 445.4C338.35 449.487 341.663 452.8 345.75 452.8Z" stroke="#A8B7E2" stroke-width="3" stroke-miterlimit="10"/>
</svg>
