<svg width="51" height="40" viewBox="0 0 51 40" fill="none" xmlns="http://www.w3.org/2000/svg">
<g clip-path="url(#clip0_778_2490)">
<path d="M5.53735 5.22745C5.44265 2.50784 7.56157 0 10.4257 0H39.774C42.6381 0 44.7571 2.50784 44.6624 5.22745C44.5714 7.8399 44.6895 11.224 45.5412 13.9833C46.3956 16.7512 47.8364 18.5007 50.1961 18.7255V21.2745C47.8364 21.4993 46.3956 23.2488 45.5412 26.0167C44.6895 28.776 44.5714 32.1601 44.6624 34.7726C44.7571 37.4922 42.6381 40 39.774 40H10.4257C7.56157 40 5.44265 37.4922 5.53745 34.7726C5.62833 32.1601 5.5102 28.776 4.65843 26.0167C3.80412 23.2488 2.3598 21.4993 0 21.2745V18.7255C2.35971 18.5007 3.80412 16.7512 4.65843 13.9833C5.5102 11.224 5.62833 7.8399 5.53735 5.22745V5.22745Z" fill="url(#paint0_linear_778_2490)"/>
<g filter="url(#filter0_d_778_2490)">
<path d="M26.1866 30.633C30.8235 30.633 33.6178 28.3626 33.6178 24.6178C33.6178 21.7872 31.624 19.7378 28.6636 19.4134V19.2955C30.8386 18.9417 32.5454 16.9219 32.5454 14.6662C32.5454 11.4522 30.008 9.35853 26.1413 9.35853H17.4413V30.633H26.1866ZM20.8246 12.0566H25.3257C27.7726 12.0566 29.1621 13.1475 29.1621 15.1231C29.1621 17.2315 27.546 18.4109 24.6158 18.4109H20.8246V12.0566V12.0566ZM20.8246 27.9351V20.9321H25.2954C28.4975 20.9321 30.1589 22.1115 30.1589 24.4115C30.1589 26.7114 28.5429 27.9351 25.4918 27.9351H20.8246V27.9351Z" fill="url(#paint1_linear_778_2490)"/>
<path d="M26.1866 30.633C30.8235 30.633 33.6178 28.3626 33.6178 24.6178C33.6178 21.7872 31.624 19.7378 28.6636 19.4134V19.2955C30.8386 18.9417 32.5454 16.9219 32.5454 14.6662C32.5454 11.4522 30.008 9.35853 26.1413 9.35853H17.4413V30.633H26.1866ZM20.8246 12.0566H25.3257C27.7726 12.0566 29.1621 13.1475 29.1621 15.1231C29.1621 17.2315 27.546 18.4109 24.6158 18.4109H20.8246V12.0566V12.0566ZM20.8246 27.9351V20.9321H25.2954C28.4975 20.9321 30.1589 22.1115 30.1589 24.4115C30.1589 26.7114 28.5429 27.9351 25.4918 27.9351H20.8246V27.9351Z" stroke="white"/>
</g>
</g>
<defs>
<filter id="filter0_d_778_2490" x="0.941284" y="-3.14147" width="49.1765" height="54.2745" filterUnits="userSpaceOnUse" color-interpolation-filters="sRGB">
<feFlood flood-opacity="0" result="BackgroundImageFix"/>
<feColorMatrix in="SourceAlpha" type="matrix" values="0 0 0 0 0 0 0 0 0 0 0 0 0 0 0 0 0 0 127 0" result="hardAlpha"/>
<feOffset dy="4"/>
<feGaussianBlur stdDeviation="8"/>
<feColorMatrix type="matrix" values="0 0 0 0 0 0 0 0 0 0 0 0 0 0 0 0 0 0 0.15 0"/>
<feBlend mode="normal" in2="BackgroundImageFix" result="effect1_dropShadow_778_2490"/>
<feBlend mode="normal" in="SourceGraphic" in2="effect1_dropShadow_778_2490" result="shape"/>
</filter>
<linearGradient id="paint0_linear_778_2490" x1="7.45873" y1="1.05863" x2="51.3216" y2="35.877" gradientUnits="userSpaceOnUse">
<stop stop-color="#9013FE"/>
<stop offset="1" stop-color="#6610F2"/>
</linearGradient>
<linearGradient id="paint1_linear_778_2490" x1="18.9714" y1="10.7588" x2="28.7759" y2="27.3404" gradientUnits="userSpaceOnUse">
<stop stop-color="white"/>
<stop offset="1" stop-color="#F1E5FC"/>
</linearGradient>
<clipPath id="clip0_778_2490">
<rect width="50.1961" height="40" fill="white"/>
</clipPath>
</defs>
</svg>
