<svg width="40" height="57" viewBox="0 0 40 57" fill="none" xmlns="http://www.w3.org/2000/svg">
<path d="M40 6L36.3559 46.8232L19.9755 51.3644L3.64024 46.8296L0 6H40Z" fill="#264DE4"/>
<path d="M33.2361 44.2237L36.3503 9.33842H20V47.8933L33.2361 44.2237Z" fill="#2965F1"/>
<path d="M8.34518 24.4815L8.794 29.4891H20V24.4815H8.34518Z" fill="#EBEBEB"/>
<path d="M20 14.3461H19.9827H7.44336L7.89857 19.3537H20V14.3461Z" fill="#EBEBEB"/>
<path d="M20 42.6968V37.4868L19.978 37.4926L14.4011 35.9867L14.0446 31.9929H11.3346H9.01773L9.71929 39.8556L19.9769 42.7032L20 42.6968Z" fill="#EBEBEB"/>
<path d="M26.149 29.4891L25.5677 35.9835L19.9827 37.4909V42.7007L30.2485 39.8555L30.3238 39.0095L31.5006 25.8262L31.6227 24.4815L32.5268 14.3461H19.9827V19.3537H27.0389L26.5832 24.4815H19.9827V29.4891H26.149Z" fill="white"/>
</svg>
