<svg width="40" height="44" viewBox="0 0 40 44" fill="none" xmlns="http://www.w3.org/2000/svg">
<g clip-path="url(#clip0_736_760)">
<path d="M14.283 9.39078C8.65613 8.36596 4.2071 9.43884 2.43397 12.5097C1.11083 14.8012 1.48855 17.8399 3.35067 21.0879C3.38835 21.1537 3.43862 21.2114 3.49861 21.2578C3.55861 21.3041 3.62715 21.3382 3.70032 21.3581C3.77349 21.3779 3.84986 21.3832 3.92506 21.3735C4.00025 21.3638 4.07281 21.3394 4.13856 21.3017C4.27136 21.2255 4.36847 21.0997 4.40855 20.9519C4.44863 20.8041 4.4284 20.6465 4.3523 20.5136C2.67474 17.5881 2.3478 14.9657 3.43345 13.0866C4.90621 10.5356 8.87417 9.57862 14.0758 10.5262C14.1698 10.5448 14.267 10.5397 14.3586 10.5113C14.4501 10.4829 14.5332 10.4322 14.6002 10.3637C14.6673 10.2953 14.7163 10.2112 14.7427 10.119C14.7691 10.0269 14.7722 9.92962 14.7516 9.83601C14.7268 9.72345 14.6688 9.62091 14.5852 9.54158C14.5016 9.46225 14.3961 9.40977 14.2824 9.39089L14.283 9.39078ZM6.27674 25.0355C8.55175 27.5359 11.5077 29.881 14.8787 31.8275C23.0407 36.5399 31.73 37.7995 36.0123 34.8795C36.1356 34.792 36.2197 34.6596 36.2464 34.5108C36.2732 34.362 36.2405 34.2086 36.1553 34.0837C36.0702 33.9587 35.9394 33.8722 35.7911 33.8427C35.6428 33.8132 35.4888 33.8431 35.3623 33.9259C31.5295 36.5394 23.2754 35.3428 15.4558 30.828C12.1852 28.9396 9.32313 26.669 7.13045 24.2592C7.0542 24.1727 6.95381 24.111 6.84219 24.082C6.73058 24.053 6.61285 24.0581 6.50416 24.0966C6.41382 24.1288 6.3329 24.1829 6.26871 24.2541C6.20452 24.3253 6.15909 24.4114 6.13652 24.5046C6.11394 24.5978 6.11494 24.6951 6.13943 24.7878C6.16391 24.8805 6.2111 24.9656 6.27674 25.0355Z" fill="#2DD0ED"/>
<path d="M34.6467 24.3337C38.3309 19.9813 39.6175 15.6036 37.8483 12.5388C36.5463 10.2838 33.7936 9.09325 30.1358 9.04575C29.9828 9.04378 29.8353 9.10264 29.7256 9.20938C29.616 9.31613 29.5532 9.46203 29.551 9.61504C29.5493 9.7292 29.5816 9.84128 29.6438 9.93705C29.706 10.0328 29.7952 10.1079 29.9001 10.1529C29.9698 10.1828 30.0446 10.1988 30.1204 10.1998C33.4103 10.2423 35.782 11.2683 36.8489 13.1159C38.3183 15.6616 37.1713 19.5655 33.766 23.5883C33.7153 23.6459 33.6765 23.713 33.6521 23.7857C33.6277 23.8584 33.618 23.9353 33.6236 24.0118C33.6292 24.0883 33.6501 24.1629 33.6849 24.2312C33.7198 24.2996 33.7679 24.3603 33.8265 24.4098C33.8851 24.4592 33.9529 24.4965 34.0261 24.5195C34.0992 24.5424 34.1762 24.5506 34.2525 24.5435C34.3289 24.5365 34.403 24.5143 34.4707 24.4782C34.5384 24.4422 34.5982 24.3931 34.6467 24.3337ZM25.1782 9.58303C21.8468 10.297 18.3013 11.6924 14.8964 13.6582C6.47001 18.5231 0.973426 25.696 1.73712 30.8976C1.74661 30.9739 1.77125 31.0474 1.80957 31.114C1.84789 31.1806 1.89913 31.2389 1.96029 31.2855C2.02144 31.332 2.09127 31.3658 2.16568 31.385C2.24009 31.4042 2.31758 31.4083 2.39361 31.3971C2.46963 31.386 2.54266 31.3597 2.6084 31.3199C2.67414 31.2801 2.73127 31.2276 2.77644 31.1655C2.82161 31.1033 2.85391 31.0327 2.87144 30.9579C2.88897 30.8831 2.89138 30.8055 2.87852 30.7298C2.20101 26.1118 7.41091 19.3121 15.4729 14.6577C18.7761 12.7504 22.2096 11.3997 25.4201 10.7111C25.5652 10.6746 25.6905 10.5833 25.7695 10.4563C25.8485 10.3293 25.8752 10.1765 25.8438 10.0303C25.8124 9.88401 25.7255 9.75563 25.6014 9.6722C25.4772 9.58877 25.3255 9.5568 25.1782 9.58303Z" fill="#2DD0ED"/>
<path d="M11.5275 34.5034C13.4546 39.8819 16.6055 43.1939 20.1495 43.1939C22.7337 43.1939 25.1247 41.4324 26.9894 38.3307C27.0312 38.2657 27.0596 38.193 27.0728 38.1169C27.086 38.0408 27.0838 37.9628 27.0663 37.8875C27.0445 37.7932 26.9993 37.706 26.9348 37.6337C26.8704 37.5615 26.7888 37.5067 26.6976 37.4743C26.6064 37.4419 26.5085 37.4329 26.413 37.4483C26.3174 37.4636 26.2272 37.5028 26.1508 37.5622C26.0897 37.6096 26.0388 37.6686 26.001 37.736C24.3251 40.5235 22.2665 42.0404 20.1495 42.0404C17.2062 42.0404 14.3951 39.0862 12.6142 34.1142C12.5898 34.0414 12.5511 33.9742 12.5004 33.9164C12.4497 33.8587 12.388 33.8117 12.319 33.7781C12.2499 33.7446 12.1748 33.7252 12.0981 33.721C12.0214 33.7169 11.9447 33.7282 11.8724 33.7542C11.8002 33.7801 11.7338 33.8202 11.6772 33.8721C11.6206 33.924 11.5749 33.9867 11.5428 34.0564C11.5107 34.1262 11.4929 34.2017 11.4903 34.2784C11.4877 34.3552 11.5006 34.4317 11.528 34.5034H11.5275ZM29.1237 33.4509C30.1209 30.2649 30.656 26.5883 30.656 22.7572C30.656 13.1987 27.3108 4.95837 22.5454 2.84236C22.4061 2.78378 22.2494 2.78214 22.109 2.83781C21.9685 2.89348 21.8555 3.00202 21.7942 3.14011C21.7329 3.2782 21.7281 3.43482 21.781 3.57635C21.8339 3.71788 21.9402 3.83301 22.0771 3.89703C26.3273 5.78449 29.5025 13.6046 29.5025 22.7572C29.5025 26.4735 28.9834 30.0341 28.0226 33.1065C27.9978 33.1793 27.9877 33.2564 27.9932 33.3332C27.9986 33.41 28.0194 33.4849 28.0543 33.5535C28.1068 33.6569 28.1892 33.742 28.2908 33.7979C28.3924 33.8538 28.5085 33.8777 28.6239 33.8666C28.7394 33.8556 28.8488 33.81 28.9379 33.7358C29.027 33.6617 29.0918 33.5624 29.1237 33.4509ZM39.9903 32.886C39.9926 32.5219 39.9229 32.1609 39.7851 31.8239C39.6474 31.4868 39.4444 31.1803 39.1877 30.922C38.931 30.6637 38.6258 30.4587 38.2896 30.3188C37.9534 30.1789 37.5929 30.1069 37.2288 30.1069C36.8646 30.1069 36.5041 30.1789 36.1679 30.3188C35.8317 30.4587 35.5265 30.6637 35.2698 30.922C35.0132 31.1804 34.8102 31.4869 34.6724 31.824C34.5347 32.161 34.465 32.522 34.4673 32.8862C34.472 33.6155 34.765 34.3133 35.2824 34.8274C35.7998 35.3415 36.4995 35.63 37.2289 35.63C37.9582 35.6299 38.6579 35.3414 39.1753 34.8273C39.6926 34.3132 39.9856 33.6154 39.9903 32.886ZM38.8362 32.886C38.8361 33.3123 38.6667 33.7212 38.3653 34.0226C38.0639 34.324 37.655 34.4934 37.2288 34.4935C36.9109 34.4935 36.6001 34.3992 36.3358 34.2226C36.0715 34.0459 35.8655 33.7949 35.7439 33.5012C35.6222 33.2075 35.5904 32.8843 35.6524 32.5726C35.7144 32.2608 35.8675 31.9744 36.0923 31.7496C36.3171 31.5248 36.6035 31.3717 36.9153 31.3097C37.227 31.2477 37.5502 31.2795 37.8439 31.4012C38.1376 31.5228 38.3886 31.7288 38.5653 31.9931C38.7419 32.2574 38.8362 32.5682 38.8362 32.886ZM3.0304 35.6476C3.39306 35.6476 3.75218 35.5762 4.08725 35.4375C4.42231 35.2987 4.72675 35.0953 4.98319 34.8388C5.23963 34.5824 5.44304 34.278 5.58181 33.9429C5.72057 33.6078 5.79197 33.2487 5.79193 32.886C5.79196 32.5234 5.72054 32.1643 5.58177 31.8292C5.44299 31.4941 5.23957 31.1897 4.98312 30.9333C4.72667 30.6768 4.42222 30.4734 4.08715 30.3346C3.75208 30.1959 3.39296 30.1245 3.03029 30.1245C2.66764 30.1245 2.30855 30.1959 1.9735 30.3347C1.63846 30.4735 1.33403 30.6769 1.07761 30.9333C0.821183 31.1898 0.617782 31.4942 0.47902 31.8293C0.340258 32.1643 0.268853 32.5234 0.268883 32.886C0.268853 33.2487 0.340262 33.6078 0.479031 33.9429C0.617799 34.2779 0.82121 34.5824 1.07765 34.8388C1.33408 35.0952 1.63852 35.2987 1.97358 35.4374C2.30864 35.5762 2.66775 35.6476 3.0304 35.6476ZM3.0304 34.4935C2.60399 34.4935 2.19505 34.3241 1.89353 34.0226C1.59201 33.7211 1.42262 33.3121 1.42262 32.8857C1.42262 32.4593 1.59201 32.0504 1.89353 31.7488C2.19505 31.4473 2.60399 31.2779 3.0304 31.2779C3.45682 31.2779 3.86576 31.4473 4.16728 31.7488C4.4688 32.0504 4.63819 32.4593 4.63819 32.8857C4.63819 33.3121 4.4688 33.7211 4.16728 34.0226C3.86576 34.3241 3.45682 34.4935 3.0304 34.4935Z" fill="#2DD0ED"/>
<path d="M20.1495 5.65918C20.6957 5.65923 21.2296 5.49728 21.6838 5.19382C22.1379 4.89035 22.4918 4.45901 22.7008 3.95436C22.8745 3.5348 22.942 3.07888 22.8974 2.62698C22.8529 2.17508 22.6976 1.74114 22.4453 1.36358C22.193 0.986016 21.8515 0.676483 21.4511 0.462386C21.0506 0.248288 20.6036 0.136232 20.1495 0.136139C19.6033 0.136046 19.0693 0.297947 18.6151 0.601363C18.1609 0.904778 17.807 1.33608 17.5979 1.84071C17.3889 2.34533 17.3342 2.90062 17.4408 3.43632C17.5474 3.97203 17.8105 4.46409 18.1968 4.85026C18.4532 5.10669 18.7576 5.3101 19.0927 5.44888C19.4277 5.58766 19.7868 5.65919 20.1495 5.65918ZM20.1495 4.50499C19.8316 4.50495 19.5208 4.41067 19.2565 4.23406C18.9922 4.05745 18.7861 3.80644 18.6644 3.51275C18.5835 3.31775 18.5419 3.10871 18.5419 2.8976C18.5419 2.6865 18.5835 2.47746 18.6644 2.28246C18.7451 2.08743 18.8635 1.91022 19.0128 1.76096C19.162 1.6117 19.3393 1.49332 19.5343 1.41257C19.7539 1.32161 19.991 1.28048 20.2284 1.29215C20.4658 1.30382 20.6977 1.368 20.9073 1.48006C21.117 1.59212 21.2992 1.74928 21.4408 1.94021C21.5824 2.13115 21.6799 2.35111 21.7263 2.58426C21.7726 2.81741 21.7667 3.05794 21.709 3.28853C21.6512 3.51912 21.543 3.73403 21.3922 3.91779C21.2414 4.10154 21.0517 4.24957 20.8368 4.3512C20.622 4.45284 20.3872 4.50556 20.1495 4.50556V4.50499ZM20.5713 24.7108C20.0533 24.8226 19.512 24.7242 19.0665 24.437C18.7343 24.2229 18.473 23.915 18.3157 23.5524C18.1585 23.1897 18.1123 22.7886 18.1831 22.3997C18.2538 22.0108 18.4383 21.6516 18.7133 21.3676C18.9882 21.0836 19.3412 20.8874 19.7275 20.8041C20.242 20.7013 20.7763 20.8049 21.2151 21.0926C21.6539 21.3802 21.9619 21.8289 22.0728 22.3417C22.1835 22.8546 22.0881 23.3904 21.8071 23.8335C21.5262 24.2766 21.0824 24.5916 20.5713 24.7103V24.7108Z" fill="#2DD0ED"/>
</g>
<defs>
<clipPath id="clip0_736_760">
<rect width="40" height="43.29" fill="white"/>
</clipPath>
</defs>
</svg>
