<svg width="40" height="56" viewBox="0 0 40 56" fill="none" xmlns="http://www.w3.org/2000/svg">
<g clip-path="url(#clip0_778_2531)">
<path d="M26.2639 20.0112L20.7232 25.1701L15.58 14.7917L18.237 8.82425C18.9085 7.63391 20.0067 7.61819 20.6783 8.82425L26.2639 20.0112Z" fill="#FFA000"/>
<path d="M20.7254 25.1679L0 44.4447L15.5823 14.7917L20.7254 25.1679Z" fill="#F57F17"/>
<path d="M32.3391 12.1213C33.3318 11.1757 34.3537 11.4947 34.612 12.8377L40 44.1842L22.1291 54.913C21.5025 55.2633 19.8405 55.4003 19.8405 55.4003C19.8405 55.4003 18.329 55.2162 17.7496 54.8973L0 44.4447L32.3391 12.1213Z" fill="#FFCA28"/>
<path d="M15.5823 14.7917L0 44.4447L6.94441 1.10275C7.20494 -0.240317 7.96631 -0.377318 8.65357 0.813024L15.5823 14.7917Z" fill="#FFA000"/>
</g>
<defs>
<clipPath id="clip0_778_2531">
<rect width="40" height="55.4026" fill="white"/>
</clipPath>
</defs>
</svg>
