<svg width="40" height="40" viewBox="0 0 40 40" fill="none" xmlns="http://www.w3.org/2000/svg">
<g clip-path="url(#clip0_778_2539)">
<path d="M0 0H40V40H0V0Z" fill="#F0DB4F"/>
<path d="M36.7262 30.4601C36.4335 28.635 35.2433 27.1027 31.7186 25.673C30.4943 25.1103 29.1293 24.7073 28.7224 23.7795C28.5779 23.2395 28.5589 22.9354 28.6502 22.6084C28.9125 21.5475 30.1787 21.2167 31.1825 21.5209C31.8289 21.7376 32.4411 22.2358 32.8099 23.0304C34.5361 21.9126 34.5323 21.9202 35.7376 21.1521C35.2966 20.4677 35.0608 20.1521 34.7719 19.8594C33.7338 18.6997 32.3194 18.1027 30.057 18.1483C29.6654 18.1978 29.27 18.251 28.8783 18.3004C27.7491 18.5856 26.673 19.1787 26.0418 19.9734C24.1483 22.1217 24.6882 25.8821 26.9924 27.4297C29.2624 29.1331 32.597 29.521 33.0228 31.1141C33.4373 33.0647 31.5894 33.6958 29.7528 33.4715C28.3992 33.1902 27.6464 32.5019 26.8327 31.251C25.3346 32.1179 25.3346 32.1179 23.7947 33.0038C24.1597 33.8023 24.5437 34.1635 25.1559 34.8556C28.0533 37.7947 35.3042 37.6502 36.6046 33.2016C36.6578 33.0494 37.0076 32.0304 36.7262 30.4601V30.4601ZM21.7452 18.384H18.0038C18.0038 21.616 17.9886 24.8251 17.9886 28.057C17.9886 30.1141 18.0951 32 17.7605 32.5779C17.213 33.7148 15.7947 33.5741 15.1483 33.3536C14.4905 33.0304 14.1559 32.5703 13.7681 31.9202C13.6616 31.7338 13.5818 31.5894 13.5551 31.5779C12.54 32.1977 11.5285 32.8213 10.5133 33.4411C11.019 34.4791 11.7643 35.3802 12.7186 35.9657C14.1445 36.8213 16.0608 37.0836 18.0647 36.6235C19.3689 36.2433 20.4943 35.4563 21.0836 34.2586C21.9354 32.6882 21.7528 30.7871 21.7452 28.6844C21.7643 25.2548 21.7452 21.8251 21.7452 18.384Z" fill="#323330"/>
</g>
<defs>
<clipPath id="clip0_778_2539">
<rect width="40" height="40" fill="white"/>
</clipPath>
</defs>
</svg>
