<svg width="40" height="37" viewBox="0 0 40 37" fill="none" xmlns="http://www.w3.org/2000/svg">
<path d="M5.15039 23.5363C5.18455 23.6135 5.22317 23.6848 5.26476 23.7561C5.28407 23.7977 5.3108 23.8408 5.33457 23.8794C5.37318 23.9566 5.41477 24.0309 5.45488 24.1052L5.68807 24.4973C5.73115 24.5701 5.77273 24.6414 5.82175 24.7127C5.90344 24.8523 5.99999 24.9889 6.08465 25.1286C6.12327 25.1865 6.15892 25.2444 6.20199 25.3023C6.36538 25.5563 6.51391 25.7672 6.67283 25.9722C6.78572 26.1252 6.8986 26.2752 7.0204 26.4252C7.0605 26.4817 7.10506 26.5381 7.14665 26.5946L7.4749 26.9926C7.51501 27.0387 7.55511 27.0921 7.59819 27.1397C7.74375 27.3149 7.89822 27.4843 8.05269 27.6566C8.05269 27.6595 8.05715 27.6625 8.06012 27.667C8.25172 27.9076 8.45818 28.1215 8.68395 28.3116L8.68989 28.3175C8.80872 28.4393 8.92754 28.5596 9.05379 28.6785L9.20381 28.8225C9.36868 28.977 9.53355 29.13 9.70733 29.2785C9.7103 29.2785 9.71179 29.2815 9.71476 29.283L9.79942 29.3572C9.95092 29.4894 10.1039 29.6201 10.2599 29.7419L10.4455 29.8979C10.5718 29.9989 10.7025 30.094 10.8317 30.1935L11.0337 30.3479C11.1719 30.4519 11.3189 30.5529 11.46 30.6539C11.512 30.6911 11.564 30.7282 11.6174 30.7623L11.6605 30.7965L12.0779 31.0698L12.2561 31.1886C12.4745 31.3283 12.6913 31.459 12.9082 31.5897C12.9706 31.6209 13.033 31.655 13.0909 31.6907C13.2513 31.7828 13.4176 31.8763 13.5795 31.961C13.6687 32.0115 13.7608 32.0546 13.8528 32.1006C13.9642 32.163 14.0801 32.2239 14.1989 32.2863C14.2316 32.2967 14.2583 32.3071 14.2851 32.3219L14.291 32.316C14.34 32.3383 14.3861 32.362 14.4336 32.3858C14.6118 32.4749 14.7975 32.5596 14.9906 32.6428C15.0262 32.6576 15.0649 32.6725 15.1035 32.6933C15.3174 32.7868 15.5313 32.8759 15.7526 32.9621C15.8031 32.977 15.8565 33.0022 15.9085 33.0215C16.109 33.0973 16.3155 33.1745 16.5205 33.2473L16.5947 33.274C16.822 33.3513 17.0463 33.4255 17.278 33.4953C17.3315 33.5102 17.3864 33.5295 17.4429 33.5443C17.679 33.6156 17.9078 33.7003 18.1469 33.7449C33.4055 36.512 37.8392 24.6161 37.8392 24.6161C34.114 29.4434 27.5029 30.7163 21.2423 29.2993C21.0106 29.2458 20.7789 29.1716 20.5442 29.1033C20.2129 29.0095 19.8845 28.906 19.5594 28.7928L19.7005 28.8359L19.6084 28.8002C19.4064 28.7319 19.2119 28.6562 19.0143 28.5804C18.966 28.5599 18.9169 28.5411 18.8673 28.524L18.8509 28.5195C18.6326 28.4319 18.4202 28.3428 18.2093 28.2492C18.1632 28.2343 18.1246 28.2135 18.0786 28.1957C17.8287 28.0869 17.5811 27.973 17.3359 27.8541L17.5409 27.9447C17.4874 27.9211 17.4349 27.8953 17.3834 27.8675C17.2438 27.8021 17.1042 27.7279 16.9676 27.658C16.8635 27.6087 16.7609 27.5562 16.6601 27.5006L16.6898 27.5155C16.522 27.4263 16.3541 27.3298 16.1848 27.2392C16.1343 27.2035 16.0764 27.1738 16.0184 27.1412C15.7668 26.9949 15.5182 26.8433 15.2728 26.6866L15.3664 26.7431C15.3035 26.7043 15.2421 26.6631 15.1822 26.6198L15.1911 26.6257C15.0315 26.5277 14.8749 26.4247 14.7218 26.3168C14.6713 26.2841 14.6252 26.2485 14.5732 26.2128C14.4132 26.1036 14.2557 25.9907 14.1009 25.8742L14.1365 25.8994C14.0742 25.8489 14.0073 25.8014 13.9405 25.7524C13.8098 25.6499 13.6776 25.5519 13.5469 25.4449L13.3716 25.3053C13.1848 25.1567 13.0016 25.0037 12.822 24.8463L12.8206 24.8449L12.3051 24.377L12.1566 24.2374C12.0348 24.1141 11.9101 23.9967 11.7853 23.8749L11.6412 23.7264C11.4874 23.5741 11.3374 23.4181 11.1912 23.2585L11.1823 23.2481L11.157 23.2274C10.9997 23.0546 10.8448 22.8798 10.6921 22.703C10.652 22.657 10.6149 22.608 10.5733 22.559L10.2361 22.1505C10.0841 21.9596 9.93556 21.766 9.79051 21.5697L9.7311 21.4866C6.25843 16.7692 5.00186 10.2591 7.78088 4.91788L5.32714 8.0207C2.17085 12.5346 2.56148 18.4045 4.97512 23.1976C5.03008 23.315 5.09098 23.4249 5.15039 23.5363Z" fill="#1266A9"/>
<path d="M15.7808 17.0336L15.7644 17.0098L15.7511 16.992L15.7808 17.0336Z" fill="black"/>
<path d="M17.4414 18.9823L17.575 19.116C17.7444 19.2794 17.9181 19.4383 18.0949 19.5972L18.1172 19.6165C18.2954 19.774 18.4959 19.9389 18.7024 20.0993L18.7336 20.123C18.7841 20.1572 18.8272 20.1973 18.8762 20.2315C19.0841 20.3919 19.2935 20.5449 19.5119 20.6979L19.5342 20.7112C19.6263 20.7781 19.7243 20.839 19.8283 20.9043C19.8699 20.9311 19.9174 20.9667 19.9619 20.9934C20.1194 21.0944 20.2739 21.188 20.4328 21.2846C20.458 21.295 20.4803 21.3083 20.5041 21.3187C20.6378 21.4004 20.7833 21.4791 20.9229 21.5504C20.972 21.5801 21.0195 21.6024 21.07 21.6306C21.1695 21.6796 21.2675 21.7316 21.3626 21.7821L21.4101 21.8029C21.6106 21.901 21.8156 21.9931 22.0161 22.0837C22.0666 22.103 22.1097 22.1193 22.1528 22.1401C22.3176 22.2114 22.4855 22.2797 22.6504 22.3421C22.7246 22.3674 22.7944 22.3971 22.8642 22.4193C23.0157 22.4758 23.1747 22.5278 23.3247 22.5798L23.5326 22.6466C23.7495 22.7134 23.9693 22.8011 24.1995 22.8367C35.9825 24.7765 38.7096 15.7503 38.7096 15.7503C36.2544 19.266 31.5028 20.9415 26.4394 19.6329C26.1866 19.5691 25.936 19.4973 25.6878 19.4175L25.7725 19.4413C25.7012 19.422 25.6388 19.3997 25.5705 19.3789C25.416 19.3254 25.2571 19.2734 25.1071 19.2185L24.8932 19.1383C24.7268 19.0714 24.5575 19.0091 24.3956 18.9378C24.3451 18.9155 24.2991 18.9006 24.2604 18.8783C24.0525 18.7848 23.8431 18.6927 23.6396 18.5947L23.3336 18.4357L23.1569 18.3466C23.0202 18.2753 22.8939 18.201 22.7632 18.1253C22.7299 18.1096 22.6977 18.0918 22.6667 18.0718L22.6712 18.0733C22.5137 17.9753 22.3503 17.8802 22.1988 17.7807C22.1483 17.7525 22.1023 17.7183 22.0547 17.6886L21.7458 17.4881C21.5319 17.3396 21.3225 17.1806 21.1101 17.0262C21.0626 16.9831 21.0165 16.9474 20.9705 16.9088C18.744 15.1665 16.9883 12.7856 16.1551 10.0897C15.2773 7.28695 15.4703 4.14403 16.9869 1.59374L15.1228 4.21978C12.8339 7.48896 12.9631 11.8588 14.7455 15.3166C15.0708 15.9552 15.4005 16.4944 15.7644 17.0083C16.1031 17.4925 16.4774 18.0599 16.9289 18.4491C17.0893 18.6318 17.2616 18.8056 17.4414 18.9823Z" fill="#1266A9"/>
<path d="M6.68026 25.9811L6.67432 25.9722L6.66392 25.9588L6.68026 25.9811ZM12.8562 24.876L12.8711 24.8864L12.874 24.8909L12.8562 24.876Z" fill="black"/>
<path d="M23.3603 1.37689C22.0102 3.3479 21.881 5.7957 22.8108 7.96871C23.7985 10.2769 25.8171 12.089 28.1698 12.9475C28.2663 12.9846 28.3599 13.0158 28.4594 13.0515L28.5901 13.0916C28.7268 13.1346 28.8649 13.1851 29.006 13.2163C35.5132 14.4655 37.2748 9.89219 37.7486 9.21935C36.1994 11.4325 33.6016 11.9642 30.4141 11.1933C30.1369 11.1257 29.8641 11.0414 29.5972 10.9408L29.6462 10.9572C29.314 10.8422 28.9887 10.7083 28.6718 10.5561L28.7283 10.5814C28.1193 10.2843 27.5965 9.96349 27.1108 9.59513C24.2619 7.44143 22.5003 3.34047 24.36 0L23.3603 1.37689Z" fill="#1266A9"/>
</svg>
