<svg width="40" height="46" viewBox="0 0 40 46" fill="none" xmlns="http://www.w3.org/2000/svg">
<path d="M20.0079 45.0929C19.404 45.0929 18.8043 44.9345 18.2748 44.6297L12.7586 41.3639C11.9346 40.9031 12.3367 40.7401 12.6084 40.6462C13.707 40.2616 13.9299 40.1747 15.1025 39.5088C15.2257 39.4385 15.387 39.4633 15.5132 39.5378L19.751 42.0525C19.904 42.1352 20.1212 42.1352 20.2631 42.0525L36.7867 32.5147C36.9397 32.4279 37.039 32.25 37.039 32.068V13.0007C37.039 12.8105 36.9397 12.6409 36.7834 12.5458L20.2664 3.01623C20.1133 2.92524 19.9107 2.92524 19.7576 3.01623L3.24393 12.5458C3.08386 12.6367 2.98211 12.8146 2.98211 12.9966V32.0639C2.98211 32.2459 3.08138 32.4196 3.23855 32.5065L7.76342 35.1205C10.2202 36.3489 11.7216 34.9012 11.7216 33.4453V14.6262C11.7216 14.3574 11.9326 14.1505 12.2014 14.1505H14.2943C14.5549 14.1505 14.7699 14.3574 14.7699 14.6262V33.4536C14.7699 36.7294 12.9831 38.6113 9.87695 38.6113C8.92152 38.6113 8.16875 38.6113 6.06762 37.5773L1.73302 35.0791C0.661773 34.4587 0 33.3006 0 32.0639V12.9966C0 11.7558 0.661773 10.5977 1.73302 9.98552L18.2732 0.443594C19.3196 -0.147865 20.7093 -0.147865 21.7475 0.443594L38.267 9.98966C39.3341 10.6059 40 11.7599 40 13.0007V32.068C40 33.3047 39.3341 34.4587 38.267 35.0791L21.7475 44.621C21.2181 44.9271 20.6183 45.0843 20.0062 45.0843" fill="#689F63"/>
<path d="M25.1116 31.9543C17.8817 31.9543 16.3658 28.6355 16.3658 25.8519C16.3658 25.5872 16.5793 25.3763 16.8444 25.3763H18.9786C19.2144 25.3763 19.4129 25.5479 19.4501 25.7808C19.7727 27.9555 20.7323 29.0524 25.1041 29.0524C28.5867 29.0524 30.0674 28.2657 30.0674 26.419C30.0674 25.356 29.6455 24.566 24.2356 24.0366C19.7107 23.5899 16.9147 22.5931 16.9147 18.9741C16.9147 15.6404 19.7272 13.6551 24.4382 13.6551C29.7283 13.6551 32.3505 15.4915 32.6814 19.4373C32.6938 19.5738 32.6442 19.7061 32.5532 19.8054C32.4622 19.9005 32.334 19.9584 32.2016 19.9584H30.055C29.8317 19.9584 29.6373 19.8013 29.5918 19.5862C29.0748 17.2989 27.8257 16.5669 24.43 16.5669C20.6289 16.5669 20.1863 17.8904 20.1863 18.8831C20.1863 20.0867 20.7075 20.4382 25.8362 21.1165C30.9153 21.7907 33.3267 22.742 33.3267 26.3114C33.3267 29.9098 30.3239 31.9737 25.0876 31.9737L25.1116 31.9543Z" fill="#689F63"/>
</svg>
