<svg width="40" height="40" viewBox="0 0 40 40" fill="none" xmlns="http://www.w3.org/2000/svg">
<g clip-path="url(#clip0_778_2545)">
<path d="M19.1463 23.4769C21.119 23.4769 22.7182 21.8777 22.7182 19.905C22.7182 17.9323 21.119 16.3331 19.1463 16.3331C17.1736 16.3331 15.5744 17.9323 15.5744 19.905C15.5744 21.8777 17.1736 23.4769 19.1463 23.4769Z" fill="#00D8FF"/>
<path fill-rule="evenodd" clip-rule="evenodd" d="M19.1464 12.6426C23.9421 12.6426 28.3973 13.3308 31.7564 14.4872C35.8037 15.8806 38.2921 17.9926 38.2921 19.905C38.2921 21.8979 35.6549 24.1416 31.3086 25.5816C28.0228 26.6703 23.6988 27.2386 19.1464 27.2386C14.4789 27.2386 10.0591 26.7052 6.73623 25.5697C2.53216 24.1327 0 21.8599 0 19.905C0 18.0081 2.37594 15.9124 6.36635 14.5211C9.73802 13.3456 14.3032 12.6426 19.1458 12.6426H19.1464Z" stroke="#00D8FF" stroke-width="2.73408"/>
<path fill-rule="evenodd" clip-rule="evenodd" d="M12.8243 16.2947C15.2202 12.1404 18.0418 8.62479 20.7218 6.29257C23.9507 3.48259 27.0235 2.38212 28.6801 3.33741C30.4065 4.333 31.0327 7.73857 30.1089 12.2229C29.4111 15.6133 27.7426 19.6428 25.4683 23.5864C23.1365 27.6297 20.4665 31.192 17.8231 33.5026C14.4781 36.4266 11.2442 37.4848 9.55071 36.5081C7.90741 35.5612 7.279 32.4554 8.06733 28.3035C8.7334 24.7955 10.405 20.4897 12.8235 16.2947L12.8243 16.2947Z" stroke="#00D8FF" stroke-width="2.73408"/>
<path fill-rule="evenodd" clip-rule="evenodd" d="M12.8303 23.597C10.4276 19.4473 8.79179 15.2462 8.10899 11.7597C7.28705 7.55886 7.86819 4.34703 9.5233 3.38896C11.2481 2.39045 14.5112 3.54873 17.9349 6.58869C20.5234 8.88702 23.1815 12.3443 25.4623 16.2842C27.8008 20.3236 29.5535 24.416 30.2353 27.86C31.098 32.2184 30.3998 35.5485 28.7079 36.5279C27.0662 37.4783 24.0621 36.4721 20.8588 33.7155C18.1522 31.3866 15.2566 27.7879 12.8303 23.5969V23.597Z" stroke="#00D8FF" stroke-width="2.73408"/>
</g>
<defs>
<clipPath id="clip0_778_2545">
<rect width="40" height="40" fill="white"/>
</clipPath>
</defs>
</svg>
