<svg width="40" height="39" viewBox="0 0 40 39" fill="none" xmlns="http://www.w3.org/2000/svg">
<g clip-path="url(#clip0_778_2561)">
<rect width="40" height="38.128" rx="12" fill="#F9F9F9"/>
<path d="M27.7158 26.5222C29.1919 26.3694 30.3117 25.0969 30.2608 23.5697C30.21 22.0427 28.9373 20.821 27.4103 20.821H27.3086C25.7305 20.8719 24.5089 22.1954 24.5598 23.7733C24.6108 24.5369 24.9161 25.1986 25.3742 25.6568C23.6436 29.0674 20.9967 31.5616 17.0264 33.6486C14.3286 35.074 11.5291 35.583 8.72953 35.2268C6.4389 34.9213 4.65734 33.9033 3.53734 32.2233C1.90859 29.7291 1.75594 27.0311 3.13031 24.3333C4.0975 22.399 5.62437 20.9736 6.59156 20.261C6.38797 19.5993 6.0825 18.4794 5.92984 17.6651C-1.45094 23.0099 -0.687346 30.2382 1.55234 33.6486C3.23203 36.194 6.6425 37.7719 10.4092 37.7719C11.4272 37.7719 12.4452 37.6701 13.4633 37.4157C19.9787 36.143 24.9162 32.2743 27.7158 26.5222V26.5222ZM36.6745 20.2102C32.8059 15.6797 27.105 13.1855 20.5895 13.1855H19.7752C19.317 12.2693 18.3498 11.6583 17.2809 11.6583H17.1791C15.6012 11.7093 14.3797 13.0327 14.4305 14.6108C14.4814 16.1379 15.7539 17.3596 17.2809 17.3596H17.3827C18.5025 17.3087 19.4697 16.596 19.8769 15.6288H20.7931C24.6617 15.6288 28.3266 16.7487 31.6353 18.9376C34.1803 20.6174 36.0128 22.8063 37.0308 25.4532C37.8961 27.5912 37.8452 29.6782 36.9289 31.4599C35.5037 34.1577 33.1114 35.634 29.9555 35.634C27.9194 35.634 25.9852 35.023 24.967 34.5649C24.4072 35.074 23.3891 35.8883 22.6764 36.3976C24.8653 37.4155 27.105 37.9755 29.2428 37.9755C34.1294 37.9755 37.7434 35.2776 39.1178 32.5797C40.5939 29.6272 40.492 24.5369 36.6745 20.2102V20.2102ZM10.8164 27.3874C10.8673 28.9146 12.1398 30.1361 13.6669 30.1361H13.7687C15.3467 30.0854 16.5683 28.7618 16.5173 27.1838C16.4666 25.6566 15.1939 24.4351 13.6669 24.4351H13.5652C13.4633 24.4351 13.3105 24.4351 13.2089 24.4858C11.1219 21.0244 10.2566 17.2577 10.562 13.1854C10.7655 10.1312 11.7836 7.48412 13.5652 5.29521C15.0412 3.41178 17.8917 2.49553 19.8261 2.44475C25.2216 2.34287 27.512 9.06209 27.6648 11.7601C28.3266 11.9127 29.4464 12.2691 30.21 12.5237C29.5991 4.2774 24.5089 0.00146484 19.6225 0.00146484C15.0412 0.00146484 10.8164 3.31021 9.13656 8.19693C6.79515 14.7126 8.32218 20.9737 11.1727 25.9113C10.9183 26.2676 10.7655 26.8276 10.8164 27.3876V27.3874Z" fill="#7E46F6"/>
</g>
<defs>
<clipPath id="clip0_778_2561">
<rect width="40" height="38.128" rx="12" fill="white"/>
</clipPath>
</defs>
</svg>
