<svg width="40" height="30" viewBox="0 0 40 30" fill="none" xmlns="http://www.w3.org/2000/svg">
<g clip-path="url(#clip0_778_2566)">
<path d="M34.4309 17.2156C33.0325 17.2235 31.8215 17.5593 30.8059 18.0594C30.4309 17.3172 30.0559 16.6687 29.9935 16.1844C29.9232 15.6219 29.8372 15.2781 29.9232 14.6063C30.009 13.9343 30.3997 12.9812 30.3997 12.9031C30.3918 12.8328 30.3136 12.489 29.509 12.4812C28.7044 12.4734 28.009 12.6375 27.9309 12.8484C27.8528 13.0593 27.6965 13.5437 27.595 14.0437C27.4544 14.7781 25.9856 17.3796 25.1497 18.7468C24.8762 18.2156 24.6419 17.7468 24.5949 17.3717C24.5247 16.8093 24.4386 16.4655 24.5247 15.7937C24.6106 15.1217 25.0012 14.1687 25.0012 14.0906C24.9934 14.0203 24.9153 13.6765 24.1107 13.6687C23.3059 13.6609 22.6107 13.825 22.5326 14.0359C22.4544 14.2468 22.3685 14.7468 22.1966 15.2312C22.0325 15.7156 20.0794 20.0593 19.5715 21.1921C19.3137 21.7703 19.0872 22.2312 18.9231 22.5437C18.759 22.8562 18.9153 22.5671 18.8997 22.5984C18.759 22.864 18.6809 23.0125 18.6809 23.0125V23.0203C18.5715 23.2157 18.4544 23.4031 18.3996 23.4031C18.3605 23.4031 18.2824 22.8796 18.4152 22.161C18.7043 20.6531 19.4074 18.3016 19.3997 18.2157C19.3997 18.1766 19.5324 17.7625 18.9465 17.5516C18.3761 17.3407 18.1731 17.6922 18.1261 17.6922C18.0793 17.6922 18.0402 17.8172 18.0402 17.8172C18.0402 17.8172 18.673 15.1689 16.8293 15.1689C15.673 15.1689 14.0793 16.4267 13.2902 17.5751C12.7902 17.8485 11.7277 18.4266 10.6027 19.0439C10.173 19.2782 9.72771 19.5282 9.30583 19.7548L9.21997 19.6609C6.9856 17.2781 2.85279 15.5906 3.02466 12.3875C3.08716 11.2234 3.49341 8.15308 10.9622 4.43433C17.0794 1.38745 21.9779 2.22339 22.8294 4.08276C24.0403 6.73901 20.2122 11.6765 13.8529 12.3875C11.431 12.6609 10.1575 11.7234 9.83724 11.3718C9.5013 11.0046 9.45443 10.989 9.32943 11.0593C9.1263 11.1687 9.2513 11.4968 9.32943 11.6921C9.51693 12.1843 10.2982 13.0593 11.6263 13.4968C12.7903 13.8796 15.6341 14.0906 19.0716 12.7625C22.9232 11.2703 25.931 7.12964 25.0482 3.6687C24.1497 0.145265 18.306 -1.01099 12.7826 0.949952C9.49341 2.12183 5.93091 3.94995 3.36841 6.34839C0.321536 9.19214 -0.162839 11.6765 0.0402863 12.7078C0.751302 16.3875 5.82154 18.7859 7.85279 20.5593C7.75122 20.6139 7.65747 20.6686 7.57154 20.7156C6.55591 21.2155 2.68872 23.239 1.71997 25.3796C0.626224 27.8014 1.89185 29.5437 2.7356 29.7781C5.34497 30.5046 8.01685 29.2 9.46216 27.0515C10.8996 24.9031 10.7278 22.114 10.0637 20.8406L10.0402 20.7937L10.8371 20.325C11.3528 20.0203 11.8606 19.739 12.3058 19.4967C12.0559 20.1764 11.8761 20.9811 11.7825 22.153C11.6731 23.5281 12.2356 25.3093 12.9778 26.0124C13.3059 26.317 13.6965 26.3249 13.9387 26.3249C14.7981 26.3249 15.1887 25.6139 15.6184 24.7624C16.1497 23.7233 16.6184 22.5202 16.6184 22.5202C16.6184 22.5202 16.0325 25.778 17.634 25.778C18.22 25.778 18.8059 25.0202 19.0715 24.6296V24.6374C19.0715 24.6374 19.0872 24.6139 19.1184 24.5592C19.1512 24.5108 19.1825 24.4613 19.2122 24.4109V24.3953C19.4465 23.989 19.97 23.0593 20.7512 21.5203C21.759 19.5359 22.7278 17.0515 22.7278 17.0515C22.7278 17.0515 22.8215 17.6609 23.1106 18.6609C23.2824 19.2547 23.6574 19.9031 23.9465 20.5359C23.7121 20.864 23.5715 21.0516 23.5715 21.0516L23.5793 21.0594C23.3919 21.3094 23.1808 21.5751 22.9622 21.8407C22.1653 22.7938 21.2122 23.8798 21.0872 24.1923C20.9387 24.5594 20.97 24.8328 21.259 25.0517C21.47 25.2079 21.845 25.2391 22.2434 25.2079C22.9622 25.161 23.4622 24.9814 23.7122 24.8719C24.1028 24.7313 24.5481 24.5203 24.9778 24.2078C25.759 23.6298 26.2356 22.8095 26.1887 21.7157C26.1653 21.1142 25.97 20.5204 25.7278 19.9579C25.7981 19.8564 25.8685 19.7547 25.9387 19.6454C27.1731 17.8407 28.1262 15.8564 28.1262 15.8564C28.1262 15.8564 28.22 16.4657 28.509 17.4657C28.6574 17.9735 28.9544 18.5283 29.22 19.0752C28.0637 20.0205 27.3372 21.1143 27.0872 21.833C26.6262 23.1611 26.9856 23.7627 27.6653 23.9033C27.9699 23.9658 28.4075 23.8252 28.7355 23.6846C29.1418 23.5518 29.634 23.3251 30.0872 22.9892C30.8684 22.4111 31.6184 21.6064 31.5794 20.5205C31.5559 20.0205 31.4231 19.5283 31.2434 19.0596C32.2278 18.6533 33.5011 18.4189 35.1184 18.6142C38.595 19.0205 39.2825 21.1924 39.1497 22.0986C39.0169 23.005 38.2904 23.5049 38.0481 23.6611C37.8059 23.8096 37.7278 23.8643 37.7512 23.9736C37.7825 24.1378 37.8919 24.1299 38.1028 24.0987C38.3919 24.0518 39.9309 23.3565 39.9934 21.6847C40.0872 19.536 38.0481 17.1922 34.4309 17.2156V17.2156ZM7.61841 26.2546C6.46997 27.5125 4.85279 27.989 4.16529 27.5828C3.4231 27.1531 3.71208 25.3015 5.12622 23.9656C5.9856 23.1531 7.10279 22.4031 7.83716 21.9421C8.00122 21.8406 8.25122 21.6922 8.5481 21.5125C8.59497 21.4813 8.62622 21.4656 8.62622 21.4656C8.68091 21.4343 8.74341 21.3953 8.80591 21.3562C9.32935 23.2625 8.82935 24.9343 7.61841 26.2546V26.2546ZM16.0168 20.5437C15.6184 21.5203 14.7747 24.0281 14.2668 23.8875C13.8293 23.7703 13.5637 21.8718 14.1808 19.9968C14.4933 19.0514 15.1574 17.9265 15.548 17.4889C16.1809 16.7858 16.8683 16.5514 17.0403 16.8405C17.2434 17.2156 16.2668 19.9343 16.0168 20.5437ZM22.9465 23.8562C22.7747 23.9422 22.6184 24.0046 22.5481 23.9578C22.4934 23.9266 22.6183 23.8094 22.6183 23.8094C22.6183 23.8094 23.4855 22.8797 23.8293 22.45C24.0246 22.2001 24.259 21.911 24.509 21.5828V21.6766C24.509 22.8015 23.4309 23.5515 22.9465 23.8562ZM28.2902 22.6375C28.1652 22.5437 28.1809 22.2546 28.6027 21.3484C28.7669 20.989 29.1418 20.3875 29.7902 19.8171C29.8683 20.0515 29.9153 20.278 29.9074 20.489C29.8997 21.8953 28.8997 22.4187 28.2902 22.6375Z" fill="#CF649A"/>
</g>
<defs>
<clipPath id="clip0_778_2566">
<rect width="40" height="30" fill="white"/>
</clipPath>
</defs>
</svg>
