<svg width="40" height="50" viewBox="0 0 40 50" fill="none" xmlns="http://www.w3.org/2000/svg">
<path d="M1.54257 45.8319L0.0017908 4.77707C-0.0490951 3.42119 0.990545 2.27209 2.34474 2.18746L37.2647 0.00495477C38.6432 -0.0811956 39.8304 0.966385 39.9166 2.34479C39.9198 2.39672 39.9214 2.44875 39.9214 2.50078V47.2373C39.9214 48.6184 38.8018 49.738 37.4207 49.738C37.3833 49.738 37.3459 49.7371 37.3085 49.7355L3.92931 48.2363C2.62932 48.1779 1.59137 47.1323 1.54257 45.8319Z" fill="#FF4785"/>
<mask id="mask0_778_2588" style="mask-type:luminance" maskUnits="userSpaceOnUse" x="0" y="0" width="40" height="50">
<path d="M1.54257 45.8319L0.0017908 4.77707C-0.0490951 3.42119 0.990545 2.27209 2.34474 2.18746L37.2647 0.00495477C38.6432 -0.0811956 39.8304 0.966385 39.9166 2.34479C39.9198 2.39672 39.9214 2.44875 39.9214 2.50078V47.2373C39.9214 48.6184 38.8018 49.738 37.4207 49.738C37.3833 49.738 37.3459 49.7371 37.3085 49.7355L3.92931 48.2363C2.62932 48.1779 1.59137 47.1323 1.54257 45.8319Z" fill="white"/>
</mask>
<g mask="url(#mask0_778_2588)">
<path d="M29.479 6.11359L29.7175 0.376795L34.5131 0L34.7196 5.91616C34.7268 6.12205 34.5658 6.29479 34.3599 6.30198C34.2717 6.30506 34.1853 6.2768 34.116 6.22221L32.2667 4.76538L30.0771 6.42629C29.913 6.5508 29.679 6.51867 29.5545 6.35453C29.5021 6.28544 29.4754 6.20024 29.479 6.11359ZM23.3459 18.7469C23.3459 19.7198 29.8993 19.2535 30.7791 18.5701C30.7791 11.9448 27.2241 8.4633 20.7143 8.4633C14.2045 8.4633 10.5571 11.999 10.5571 17.3025C10.5571 26.5394 23.0227 26.7162 23.0227 31.7546C23.0227 33.1688 22.3302 34.0086 20.8066 34.0086C18.8214 34.0086 18.0365 32.9947 18.1288 29.5474C18.1288 28.7995 10.5571 28.5664 10.3263 29.5474C9.73847 37.9014 14.9432 40.311 20.8989 40.311C26.67 40.311 31.1946 37.2349 31.1946 31.6662C31.1946 21.7663 18.5443 22.0315 18.5443 17.1257C18.5443 15.1369 20.0217 14.8717 20.8989 14.8717C21.8223 14.8717 23.4844 15.0345 23.3459 18.7469Z" fill="white"/>
</g>
</svg>
