<svg width="40" height="24" viewBox="0 0 40 24" fill="none" xmlns="http://www.w3.org/2000/svg">
<g clip-path="url(#clip0_736_798)">
<path d="M20 0C14.6686 0 11.3367 2.66494 10.0037 7.99433C12.0032 5.32939 14.3356 4.33041 17.0011 4.9964C18.522 5.37639 19.609 6.47986 20.8125 7.70084C22.7724 9.6898 25.0409 11.9917 29.9963 11.9917C35.3272 11.9917 38.6596 9.32681 39.9921 3.99692C37.9931 6.66186 35.6607 7.66134 32.9947 6.99535C31.4743 6.61536 30.3873 5.51189 29.1838 4.29091C27.2239 2.30195 24.9549 0 20 0ZM10.0037 11.9917C4.67282 11.9917 1.34039 14.6567 0.00791931 19.9866C2.00688 17.3216 4.33933 16.3222 7.00527 16.9886C8.52574 17.3691 9.61272 18.4721 10.8162 19.6926C12.7762 21.6815 15.0451 23.984 20 23.984C25.3314 23.984 28.6633 21.3191 29.9963 15.9892C27.9968 18.6541 25.6644 19.6536 22.9989 18.9871C21.478 18.6076 20.391 17.5036 19.1875 16.2832C17.2276 14.2942 14.9591 11.9917 10.0037 11.9917Z" fill="#06B6D4"/>
</g>
<defs>
<clipPath id="clip0_736_798">
<rect width="40" height="23.984" fill="white"/>
</clipPath>
</defs>
</svg>
