<svg width="40" height="40" viewBox="0 0 40 40" fill="none" xmlns="http://www.w3.org/2000/svg">
<g clip-path="url(#clip0_736_803)">
<path d="M20.0008 40C8.91718 40 -0.0828177 31.1664 0.000776015 20C0.0843698 8.83359 8.50078 0 20.0008 0C31.5016 0 40.0008 9 40.0008 20C40.0008 31 31.0844 40 20.0008 40ZM25.9172 36.9164L20.2508 21.6664L14.9172 37.25C18.8344 38.1672 21.5008 38.4164 25.9172 36.9164ZM12.0844 36.0836L3.58437 12.8336C2.41718 15.3336 2.16796 17.4172 2.00078 20C2.08437 26.8328 5.91718 33.0828 12.0844 36.0836ZM37.918 20C38.0008 15.5836 36.0016 12.0836 35.8344 11.5836C36.0016 15.0008 35.5008 16.75 34.918 18.6672L29.0844 35.4172C36.418 31 37.8336 24.4164 38.0008 20H37.918ZM19.418 19.25L16.5844 11.5L14.5008 11.3336C13.668 10.75 14.1672 9.83359 14.7508 9.83359C18.5008 10.0836 20.5836 10.0836 24.3344 9.83359C25.2516 9.83359 25.5008 11.1672 24.4172 11.3336L22.4172 11.5L28.9164 30.6664L31.9992 20.1664C32.1664 15.5836 30.9156 15.0836 29.2492 11.75C27.9156 9.16641 29.3328 6.66641 31.9164 6.58359C29.832 4.58359 25.5828 2.08359 19.9992 2C14.4156 1.91641 8.49921 4.75 4.99921 10.0836L11.1664 9.91719C11.9164 10.2508 11.5828 11.3336 11.1664 11.4172L9 11.5836L15.5 31.0836L19.418 19.25Z" fill="#21759B"/>
</g>
<defs>
<clipPath id="clip0_736_803">
<rect width="40" height="40" fill="white"/>
</clipPath>
</defs>
</svg>
